<svg width="14" height="14" viewBox="0 0 14 14" fill="none" xmlns="http://www.w3.org/2000/svg">
<path d="M1.27273 7C1.27273 10.1631 3.83691 12.7273 7 12.7273C10.1631 12.7273 12.7273 10.1631 12.7273 7C12.7273 3.83691 10.1631 1.27273 7 1.27273C3.83692 1.27273 1.27273 3.83691 1.27273 7ZM7.44993 9.99538C7.20141 10.2439 6.79859 10.2439 6.55007 9.99538L4.00462 7.44993C3.7561 7.20141 3.7561 6.79859 4.00462 6.55007L6.55007 4.00462C6.79859 3.7561 7.20141 3.7561 7.44993 4.00462C7.69845 4.25313 7.69845 4.65596 7.44993 4.90447L5.99077 6.36364L9.54546 6.36364C9.89691 6.36364 10.1818 6.64855 10.1818 7C10.1818 7.35145 9.89691 7.63636 9.54546 7.63636L5.99077 7.63636L7.44993 9.09553C7.69845 9.34404 7.69845 9.74687 7.44993 9.99538ZM6.11959e-07 7C7.95981e-07 3.13401 3.13401 -7.80947e-07 7 -6.11959e-07C10.866 -4.27937e-07 14 3.13401 14 7C14 10.866 10.866 14 7 14C3.13401 14 4.42971e-07 10.866 6.11959e-07 7Z" fill="#1E1E1E"/>
</svg>
