<svg width="46" height="33" viewBox="0 0 46 33" fill="none" xmlns="http://www.w3.org/2000/svg">
<path d="M15.4694 32.1207H0L1.10037 26.7506H2.28327L3.38211 25.0939L7.08362 7.02678L6.66334 5.37012H5.48045L6.58082 0H22.0502L25.3895 2.66005L23.5387 11.6936L19.4123 14.4037L23.175 17.0637L20.635 29.4606L15.4694 32.1207ZM17.424 6.67514L16.4857 5.37012H14.5661L13.0654 12.697H14.9849L16.4582 11.392L17.424 6.67514ZM14.9696 20.0754L13.8127 18.4188H11.8932L10.1861 26.7506H12.1056L13.9411 25.0939L14.9696 20.0754Z" fill="black"/>
<path d="M36.0799 32.1207H20.6106L21.711 26.7506H22.8939L23.9927 25.0939L27.6942 7.02678L27.2739 5.37012H26.091L27.1914 0H42.6608L46.0001 2.66005L44.1493 11.6936L40.0229 14.4037L43.7856 17.0637L41.2456 29.4606L36.0799 32.1207ZM38.0346 6.67514L37.0963 5.37012H35.1767L33.6759 12.697H35.5955L37.0687 11.392L38.0346 6.67514ZM35.5787 20.0754L34.4217 18.4188H32.5022L30.7951 26.7506H32.7147L34.5501 25.0939L35.5787 20.0754Z" fill="black"/>
</svg>
