<?xml version="1.0" encoding="UTF-8"?>
<svg id="Layer_2" xmlns="http://www.w3.org/2000/svg" version="1.1" viewBox="0 0 2808.6 261">
  <!-- Generator: Adobe Illustrator 29.2.1, SVG Export Plug-In . SVG Version: 2.1.0 Build 116)  -->
  <defs>
    <style>
      .st0 {
        fill: #231f20;
      }

      .st1 {
        isolation: isolate;
      }
    </style>
  </defs>
  <g id="Layer_1-2">
    <g class="st1">
      <g class="st1">
        <path class="st0" d="M162.1,258.2H4.5v-42.7h12.1l7.7-13.2V58.7l-7.7-13.2H4.5V2.8h157.6l39.6,21.1v71.8l-36.4,21.5,43.9,21.1v98.5l-47.1,21.1v.3ZM128.9,55.9l-12.3-10.4h-19.6v58.2h19.6l12.3-10.4v-37.5h0ZM131.9,162.5l-15.2-13.2h-19.6v66.2h19.6l15.2-13.2v-39.9h0Z"/>
        <path class="st0" d="M423,45.6l-7.5,13.2v159.6l-42.5,42.7h-84.8l-45.5-39.9V58.8l-7.7-13.2h-13.6V2.9h124.4v42.7h-13.6l-7.5,13.2v124.9l18.2,21.5h13.6l18.2-21.5V58.8l-7.7-13.2h-12.1V2.9h82.1v42.7h-14Z"/>
        <path class="st0" d="M444.1,258.2v-42.7h12.1l7.7-13.2V58.7l-7.7-13.2h-12.1V2.8h115.3v42.7h-12.3l-7.5,13.2v143.6l7.5,13.2h12.3v42.7h-115.3Z"/>
        <path class="st0" d="M568.5,258.2v-42.7h12.1l7.7-13.2V58.7l-7.7-13.2h-12.1V2.8h118.2v42.7h-15.2l-7.5,13.2v156.8h16.6l39.6-47.9v-26.3h28.7v116.9h-180.4Z"/>
        <path class="st0" d="M918.7,258.2h-162.1v-42.7h12.1l7.7-13.2V58.7l-7.7-13.2h-12.1V2.8h162.1l54.6,39.9v167.6l-54.6,47.9h0ZM891.4,74.7l-15-26.7h-22.7v165.2h21.1l16.6-29.5v-108.9h0Z"/>
        <path class="st0" d="M990.1,258.2v-42.7h12.1l7.7-13.2V58.7l-7.7-13.2h-12.1V2.8h115.3v42.7h-12.3l-7.5,13.2v143.6l7.5,13.2h12.3v42.7h-115.3Z"/>
        <path class="st0" d="M1314.6,45.6l-7.5,13.2v199.5h-65.3v-13.2l-72.8-127.7v77l12.1,21.1h16.8v42.7h-83.5v-42.7h9.1l10.7-18.4V61.5l-9.1-16h-10.7V2.8h98.5v16l60.7,106.5v-63.8l-9.1-16h-16.6V2.8h77.3v42.7h-10.7,0Z"/>
        <path class="st0" d="M1529.9,162.5v95.7h-30.5v-21.1l-33.2,23.9h-71.4l-54.6-47.9V50.7L1398,0h71.9l26.6,16V2.8h28.9v100.9h-30.5v-13.2l-36.4-42.7h-18.2l-18.2,31.9v109.3l13.6,23.9h19.8l4.5-8v-42.7h-21.1v-45.1h106v45.1h-15v.3Z"/>
        <path class="st0" d="M1766.2,258.2h-157.6v-42.7h12.1l7.7-13.2V58.7l-7.7-13.2h-12.1V2.8h157.6l39.6,21.1v71.8l-36.4,21.5,43.9,21.1v98.5l-47.1,21.1v.3ZM1733,55.9l-12.3-10.4h-19.6v58.2h19.6l12.3-10.4v-37.5h0ZM1736,162.5l-15.2-13.2h-19.6v66.2h19.6l15.2-13.2v-39.9h0Z"/>
        <path class="st0" d="M1993.6,261h-106l-51.6-39.9V45.6L1887.6.1h106l51.6,39.9v175.5l-51.6,45.5ZM1961.8,69.5l-12.1-21.5h-16.6l-13.6,23.9v119.7l12.1,21.5h16.6l13.6-23.9v-119.7h0Z"/>
        <path class="st0" d="M2225.6,258.2h-162.1v-42.7h12.1l7.7-13.2V58.7l-7.7-13.2h-12.1V2.8h162.1l54.6,39.9v167.6l-54.6,47.9h0ZM2198.3,74.7l-15-26.7h-22.7v165.2h21.1l16.6-29.5v-108.9h0Z"/>
        <path class="st0" d="M2297,258.2v-42.7h12.1l7.7-13.2V58.7l-7.7-13.2h-12.1V2.8h115.3v42.7h-12.3l-7.5,13.2v143.6l7.5,13.2h12.3v42.7h-115.3Z"/>
        <path class="st0" d="M2421.4,258.2v-42.7h12.1l7.7-13.2V58.7l-7.7-13.2h-12.1V2.8h186.5v98.5h-27.3v-21.5l-30.2-34.3h-35v55.9h9.1l12.3-34.7h22.7v119.7h-22.7l-12.3-34.7h-9.1v63.8h27.3l39.6-47.9v-23.9h27.3v114.5h-188.2Z"/>
        <path class="st0" d="M2756.3,261h-71.2l-25.7-16v13.2h-24.3v-93h28.9l3,8,36.4,45.1h18.2l10.7-13.2v-21.5l-18.2-13.2h-27.3l-51.6-45.1V42.7L2683.6,0h66.9l22.7,13.6V2.8h24.1v79.8h-25.7l-3-8-28.9-31.9h-23.4l-8.4,10.8v16l18.2,13.2h30.2l48.7,42.7v93l-48.7,42.7h0Z"/>
      </g>
    </g>
  </g>
</svg>