<?xml version="1.0" encoding="UTF-8"?>
<svg id="Layer_2" data-name="Layer 2" xmlns="http://www.w3.org/2000/svg" viewBox="0 0 400.69 382.44">
  <defs>
    <style>
      .cls-1 {
        fill: none;
      }

      .cls-2 {
        fill: #231f20;
      }
    </style>
  </defs>
  <g id="Layer_1-2" data-name="Layer 1">
    <g>
      <path d="M31.66,62.1H8.44l1.65-8.13h1.78l1.65-2.51,5.56-27.34-.63-2.51h-1.78l1.65-8.13h23.22l5.01,4.03-2.78,13.67-6.19,4.1,5.65,4.03-3.81,18.76-7.75,4.03ZM34.6,23.59l-1.41-1.97h-2.88l-2.25,11.09h2.88l2.21-1.97,1.45-7.14ZM30.91,43.87l-1.74-2.51h-2.88l-2.56,12.61h2.88l2.75-2.51,1.54-7.6Z"/>
      <path d="M62.6,62.1h-23.22l1.65-8.13h1.78l1.65-2.51,5.56-27.34-.63-2.51h-1.78l1.65-8.13h23.22l5.01,4.03-2.78,13.67-6.19,4.1,5.65,4.03-3.81,18.76-7.75,4.03ZM65.53,23.59l-1.41-1.97h-2.88l-2.25,11.09h2.88l2.21-1.97,1.45-7.14ZM61.84,43.87l-1.74-2.51h-2.88l-2.56,12.61h2.88l2.75-2.51,1.54-7.6Z"/>
    </g>
    <g>
      <path class="cls-2" d="M141.26,49.99h-20.17l1.43-7.06h1.54l1.43-2.18,4.83-23.76-.55-2.18h-1.54l1.43-7.06h20.17l4.35,3.5-2.41,11.88-5.38,3.56,4.91,3.5-3.31,16.3-6.74,3.5ZM143.81,16.54l-1.22-1.72h-2.5l-1.96,9.63h2.5l1.92-1.72,1.26-6.2ZM140.61,34.16l-1.51-2.18h-2.5l-2.23,10.95h2.5l2.39-2.18,1.34-6.6Z"/>
      <path class="cls-2" d="M163.98,76.8h-20.17l1.43-7.06h1.54l1.43-2.18,4.83-23.76-.55-2.18h-1.54l1.43-7.06h20.17l4.35,3.5-2.41,11.88-5.38,3.56,4.91,3.5-3.31,16.3-6.74,3.5ZM166.53,43.35l-1.22-1.72h-2.5l-1.96,9.63h2.5l1.92-1.72,1.26-6.2ZM163.33,60.97l-1.51-2.18h-2.5l-2.23,10.95h2.5l2.39-2.18,1.34-6.6Z"/>
    </g>
    <g>
      <polygon points="243.73 70.31 243.11 70.65 242.4 73.05 242.7 73.61 243.28 73.78 243.91 73.44 244.61 71.04 244.31 70.48 243.73 70.31"/>
      <path d="M252.37,34.13c2.71,0,5.09,1.42,6.44,3.56l26.88-14.78c-6.58-11.6-19.05-19.44-33.31-19.44s-26.73,7.84-33.31,19.44l26.88,14.78c1.35-2.13,3.73-3.56,6.44-3.56ZM275.1,16.02l1.9,1.83.47.92.19-.2.76.74-1.47,1.52-.81-.78.19-.2-.34-1.57-.48-.46-.94.02-1.59,1.65v.71s.54.5.54.5h.24s.62-.65.62-.65l-.56-.54.65-.68,2.8,2.7-.65.68-.4-.38-1.39,1.44-.81-.78.31-.32-1.23-.49-1.89-1.82-.75-2.11,2.36-2.45,2.26.71ZM260.28,12.7l.93-2.86-.18-.35-.42-.14.28-.85,4.03,1.31-.28.85-.43-.14-.35.18-.93,2.86.18.35.41.13.09-.15.29.16.53-.14,1.39-2.47-.13-.45-.34-.19.44-.78,3.15,1.77-.16.29.85,3.04.66-1.16-.13-.45-.53-.3.44-.78,2.47,1.39-.44.78-.34-.19-.38.1-2.05,3.64-2.09-1.17.14-.24-1.02-3.64-.79,1.4.17.6.54.3-.44.78-2.53-1.42-.05.15-4.03-1.31.28-.85.42.14.36-.17ZM233.44,19.82l-4.11,4.07-.63-.64.31-.31v-.4s-2.11-2.14-2.11-2.14h-.4s-.31.32-.31.32l-.63-.63,4.11-4.07,1.34-.71,1.06,1.07-.63,1.26,1.46-.82,1.45,1.47-.92,1.53ZM239.34,15.96l-2.7,1.56-1.86.11-1.7-2.94-.38-.1-.43.25-.45-.77,3.96-2.28.45.77-.43.25-.1.38,1.31,2.26.8.06.43-.25.35-.72-1.31-2.26-.38-.1-.38.22-.45-.77,2.61-1.51.45.77-.44.25-.1.38,1.67,2.89-.91,1.55ZM241.19,15.01l-.28-.85.42-.14.18-.35-.95-2.85-.36-.17-.42.14-.28-.85,4.02-1.34.28.85-.43.14-.17.35.95,2.85.35.17.43-.14.04.11-.03-.22.44-.06.24-.31-.42-2.98-.32-.23-.44.06-.13-.88,4.3-.61.13.88-.55.08-.23.31.46,3.25.6-.09,1.3-1.2-.08-.55,1.04-.15.21,1.45.34.03.31-.24.31-2.99-.25-.3-.44-.05.09-.89,5.92.62,1.91,1.04-.36,3.49-2.1.79-5.6-.58v.06s-6.43.92-6.43.92l.03.09-4.02,1.34Z"/>
      <polygon points="251.48 71.57 251.44 75.03 252.22 75.04 252.83 74.43 252.86 72.15 252.31 71.58 251.48 71.57"/>
      <polygon points="256.37 11.53 256.6 9.27 256.11 8.65 255.28 8.57 254.92 12.01 255.7 12.09 256.37 11.53"/>
      <path d="M252.37,35.03c-3.7,0-6.71,3.01-6.71,6.71s3.01,6.71,6.71,6.71,6.71-3.01,6.71-6.71-3.01-6.71-6.71-6.71ZM252.37,45.93c-2.31,0-4.19-1.88-4.19-4.19s1.88-4.19,4.19-4.19,4.19,1.88,4.19,4.19-1.88,4.19-4.19,4.19Z"/>
      <polygon points="229.89 39.71 229.89 37.77 229.28 37.23 228.3 37.23 228.3 40.25 229.28 40.25 229.89 39.71"/>
      <path d="M244.76,41.74c0-1.17.27-2.28.74-3.27l-26.88-14.78c-2.89,5.38-4.53,11.52-4.53,18.05s1.64,12.67,4.53,18.05l26.88-14.78c-.47-.99-.74-2.1-.74-3.27ZM233.91,47.15l-2.35,1.09h-7.88v-2.21h.6l.39-.68v-7.43l-.39-.68h-.6v-2.21h7.88l1.98,1.09v3.72l-1.82,1.12,2.19,1.09v5.1Z"/>
      <polygon points="228.3 42.6 228.3 46.03 229.28 46.03 230.04 45.35 230.04 43.29 229.28 42.6 228.3 42.6"/>
      <polygon points="235.31 68.77 234.59 69.95 235.2 70.33 235.82 70.39 236.26 69.67 235.92 69.15 235.31 68.77"/>
      <polygon points="236.45 66.92 235.81 67.96 236.42 68.34 236.92 68.39 237.33 67.72 237.06 67.3 236.45 66.92"/>
      <polygon points="277.32 42.6 277.32 46.03 278.3 46.03 279.06 45.35 279.06 43.28 278.3 42.6 277.32 42.6"/>
      <polygon points="278.92 39.71 278.92 37.77 278.3 37.23 277.32 37.23 277.32 40.25 278.3 40.25 278.92 39.71"/>
      <polygon points="230.65 19.37 230.14 19.88 231.12 20.86 231.63 20.36 231.83 19.77 231.24 19.18 230.65 19.37"/>
      <path d="M286.11,23.7l-26.88,14.78c.47.99.74,2.1.74,3.27s-.27,2.28-.74,3.27l26.88,14.78c2.89-5.38,4.53-11.52,4.53-18.05s-1.64-12.67-4.53-18.05ZM282.93,47.15l-2.35,1.09h-7.88v-2.21h.6l.39-.68v-7.43l-.39-.68h-.6v-2.21h7.88l1.98,1.09v3.72l-1.82,1.12,2.19,1.09v5.1Z"/>
      <polygon points="229.6 17.67 229.12 17.83 228.61 18.33 229.47 19.2 229.98 18.7 230.15 18.22 229.6 17.67"/>
      <path d="M252.37,49.35c-2.71,0-5.09-1.42-6.44-3.56l-26.88,14.78c6.58,11.6,19.05,19.44,33.31,19.44s26.73-7.84,33.31-19.44l-26.88-14.78c-1.35,2.13-3.73,3.56-6.43,3.56ZM238.94,70.73l-1.08,1.76-1.7-.53-4.93-3.02.47-.76.38.23.39-.09,1.57-2.56-.1-.38-.38-.23.47-.76,4.93,3.02,1.01,1.14-.79,1.28-1.37-.31,1.14,1.22ZM246.69,74.83l-2.09.38-3.73-1.1-1.58-1.33,1.03-3.53,2.09-.38,3.73,1.1,1.58,1.33-1.03,3.53ZM255.83,75.02l-2.01.98-5.95-.06v-.89s.45,0,.45,0l.29-.27.03-3.01-.28-.28h-.44s0-.9,0-.9l5.95.06,2,.86-.03,3.51ZM268.08,65.96l2-1.43.84-.26-.13-.18.72-.51.97,1.36-.77.55-.19-.07-1.25.07-.7.5-.12.36.19.27.7-.16.9-.65,1.97-.31,1.13,1.58-.93,1.77-2.13,1.52-.96.28.16.22-.73.52-1.13-1.58.86-.62.19.07h1.64s.54-.4.54-.4l.16-.45-.26-.37-.7.16-.82.58-2.09.34-1.01-1.41.93-1.76ZM260.13,69.79l6.2-2.53.78,1.91-.93.38-.17-.42-1.3-.25-1.19.49.44,1.08.31-.13.14-.84.77-.32.95,2.32-.77.32-.69-.5-.31.13.51,1.24.93-.38.97-1.48-.19-.46.93-.38.91,2.22-6.39,2.61-.34-.83.41-.17.16-.36-1.14-2.78-.37-.15-.41.17-.05-.13-.44.09-.22.32.59,2.95.32.22.44-.09.17.88-4.15.83-.17-.88.43-.09.22-.33-.59-2.95-.33-.21-.43.09-.17-.88,4.15-.83.02.13Z"/>
      <path class="cls-2" d="M252.37,81.75c-10.71,0-20.79-4.17-28.36-11.75-7.58-7.58-11.75-17.65-11.75-28.36s4.17-20.79,11.75-28.36c7.58-7.58,17.65-11.75,28.36-11.75s20.79,4.17,28.36,11.75c7.58,7.58,11.75,17.65,11.75,28.36s-4.17,20.79-11.75,28.36c-7.58,7.58-17.65,11.75-28.36,11.75ZM252.37,2.6c-10.43,0-20.23,4.06-27.6,11.43-7.37,7.37-11.43,17.17-11.43,27.6s4.06,20.23,11.43,27.6c7.37,7.37,17.17,11.43,27.6,11.43s20.23-4.06,27.6-11.43c7.37-7.37,11.43-17.17,11.43-27.6s-4.06-20.23-11.43-27.6c-7.37-7.37-17.17-11.43-27.6-11.43Z"/>
    </g>
    <g>
      <path class="cls-1" d="M355.59,59.32c.56-.72.71-1.69,1.18-2.47.46-.77,1.1-1.32.84-2.34-.18-.69-.69-1.26-1.3-1.65-.85-.55-2.02-.97-2.99-1.27-.3-.09-.61-.18-.86-.36-.64-.45-1.15-1.3-1.85-.49-.57.66-.55,1.54-.96,2.27-1.06,1.93-3.22,3.01-4.85,4.26-.41.32-.65.86-.94,1.08-.14.11-2.01,1.01-2.15,1.04-1.13.19-1.06-.7-1.49-1.12-1.65-1.62-2.74-2.2-3.96-4.44-.63-1.17-.86-2.72-1.5-3.86-.17-.3-.57-.47-.69-.74-.49-1.03-.74-3.23-.64-4.37.04-.52,1-3.96,1.26-4.12.66-.22,1.43.31,1.92.42.26.06.58-.2.76-.06.29.21.08.73.21.96.12.21,1.01.23.59,1.1-.42.87-.22.91-.4,1.39-.19.49-.76.57-.96.84-.14.19-.27,1.04-.57,1.13-.39.13-.72-.29-1.03-.05.51.74.84,1.61,1.52,2.24.72.67,3.18,2.3,4.07,2.72.19.09.49.22.67.09.15-.1.36-.44.39-.62.03-.16-.05-.36-.09-.52-.1-.45-.16-.88-.04-1.33.35-1.34,1.74-1.83,1.97-2.32.47-.98.31-2.07.87-3.07.64-1.14,1.36-2.08,2.64-2.55.77-.28,1.83-.39,2.23-1.21.28-.56.14-1.37-.46-1.68-.92-.47-1.07.44-1.66.83-.72.47-1.42.09-2.06-.33-.64-.41-1.52-.47-2.1-.92-.32-.24-.29-.89-.47-1.05-.21-.18-.93-.11-1.31-.39-.73-.53-.86-1.62-1.71-2.05-.99-.51-1.95-.2-2.73-1.25.24.17.6,0,.75-.26.44-.76-.29-1.46.28-2.23.25-.34.6-.58.95-.82.68-.47,1.49-.89,2.1-1.46.2-.19,1.46-1.24,1.46-1.39.31-.21,1.2-.54,1.56-.51.12.01,2.01.65,2.19.73,1.26.58,3.05,2.76,4.34,3.59.86.55,3.94.02,4.47-.91.28-.49.13-1.51.3-2.09.48-1.67,1.51-2.69,2.66-3.9.64-.68.57-1.74,1.33-2.39.39-.34,1.42-.64,1.44-.72.17-.6-.64-1.31-1.15-1.61-.63-.37-1.38-.55-2.09-.73-1.27-.31-2.67-.31-3.92.11.39,1,0,1.77-.48,2.64-.11.2-.41.25-.47.44-.1.35.21.72-.2,1.05-.4.38-.8-.08-1.17-.12-.32-.04-.53.12-.89.01-.1-.03-1.4-1.2-1.45-1.28-.55-.88.74-2.08,1.35-2.74.76-.84,2.08-2.13,3.23-2.31.46-.07.97.06,1.42-.01,2.38-.36,4.73-1.04,7.15-1.13,1.35-.05,6.04.14,6.22,2.04.05.49-.16.97-.29,1.44-.12.43-.05.79.03,1.16.07.3.15.61.16.95.02.72-.21,1.53-.37,2.23-.26,1.12-.54,2.3-1.18,3.27-.44.67-1.88,1.67-1.97,2.47-.05.43.49.88.71,1.23.29.46.57.96.67,1.5.28,1.65.03,3.74.24,5.48.43,3.53,1.82,6.94,2.12,10.75.15,1.93-.36,3.86-.11,5.78.13.97.65,1.17,1.11,1.98.42.74.58,1.62.61,2.46.11,2.64-.94,5.27-2.72,7.2-.74.8-2.02,1.33-2.21,2.44-.07.4-.07.82-.05,1.25,11.65-4.29,19.95-15.49,19.95-28.63,0-16.85-13.66-30.5-30.5-30.5s-30.5,13.66-30.5,30.5c0,14.82,10.58,27.18,24.59,29.93,1.61-3.95,4.38-7.34,6.94-10.64Z"/>
      <g>
        <g>
          <path class="cls-2" d="M324.22,28.32l-2.29,7.86-1.21-.35.17-.6-.26-.49-4.08-1.19-.49.28-.17.6-1.21-.35,2.29-7.86,1.18-1.8,2.04.59.08,1.99,1.24-2.01,2.8.82-.08,2.52ZM317.99,28.3l-.47.53-.28.98,1.66.48.28-.98-.12-.7-1.07-.31ZM321.06,29.03l-.6.65-.28.98,1.88.55.28-.98-.15-.87-1.13-.33Z"/>
          <path class="cls-2" d="M326.19,13.27l.08.54,3.81,2.79-.28,2.53-2.6,3.56-2.35,1.21-3.88-2.84-.55.09-.42.57-1.02-.75,3.81-5.22,1.02.75-.42.57.08.54,2.98,2.18,1.07-.39.42-.57.04-1.14-2.98-2.18-.55.09-.37.51-1.02-.75,2.52-3.44,1.02.75-.43.58Z"/>
          <path class="cls-2" d="M332.16,16.43l-.78-.99.49-.39.07-.55-2.63-3.34-.56-.06-.49.39-.78-.99,4.7-3.71.78.99-.5.39-.06.55,2.63,3.34.55.06.5-.4.78.99-4.7,3.71Z"/>
          <path class="cls-2" d="M337.09,12.35l-.52-1.15.57-.26.21-.52-1.74-3.88-.53-.19-.57.26-.52-1.15,5.61-2.51.52,1.15-.72.32-.2.52,1.9,4.24.79-.35,1.3-2.13-.32-.71,1.36-.61,1.41,3.16-8.55,3.83Z"/>
          <path class="cls-2" d="M354.3,7.53l-8.39.73-.11-1.26.62-.05.37-.42-.37-4.24-.43-.35-.62.05-.11-1.26,8.39-.73,2.93.93.43,4.94-2.7,1.66ZM352.42,2.24l-.85-.72-1.18.1.42,4.87,1.09-.1.78-.95-.28-3.21Z"/>
          <path class="cls-2" d="M357.89,7.66l.24-1.24.61.12.47-.31.82-4.17-.32-.46-.61-.12.24-1.24,5.88,1.15-.24,1.24-.63-.12-.46.31-.82,4.17.31.46.63.12-.24,1.24-5.88-1.15Z"/>
          <path class="cls-2" d="M376.35,7.67l-.52.17-2.65,5.28-3.03-1.52.18-.35-1.68-5.07-1.02,2.04.28.84.78.39-.57,1.13-3.87-1.95.57-1.13.42.21.74-.24,1.8-3.59-.21-.63-.5-.25.57-1.13,4.57,2.3-.21.42,1.4,4.23.85-1.69-.21-.63-.77-.39.57-1.13,3.59,1.8-.57,1.13-.5-.25Z"/>
          <path class="cls-2" d="M383.38,19.23l-2.06,1.95-1.09-1.15.45-.43-1.7-.76-2.55-2.69-.92-3.03,3.49-3.31,3.15,1.15,2.57,2.71.61,1.33.28-.27,1.03,1.09-2.17,2.06-1.09-1.15.28-.27-.38-2.24-.65-.69-1.34-.04-2.35,2.23-.03,1,.71.75h.33s.92-.86.92-.86l-.76-.8.97-.92,3.79,3.99-.97.92-.54-.57Z"/>
        </g>
        <g>
          <path class="cls-2" d="M336.9,76.63l-7.11-4.05.63-1.1.54.31.54-.14,2.11-3.69-.16-.54-.54-.31.63-1.1,7.11,4.05,1.48,1.56-1.05,1.85-1.96-.38,1.67,1.67-1.44,2.53-2.43-.67ZM336.94,73.39l-.49-.73-.88-.5-.97,1.7.88.5.88.05.58-1.03ZM338.37,70.57l-.4-.58-.88-.5-.85,1.5.88.5.71.05.55-.96Z"/>
          <path class="cls-2" d="M350.89,80.58l-5.44-.86-2.46-1.59.81-5.13,2.86-.91,5.44.86,2.46,1.59-.81,5.13-2.86.91ZM350.14,74.72l-.52-.73-.85-.13-.81.59-.55,3.5.52.73.85.13.81-.59.55-3.5Z"/>
          <path class="cls-2" d="M365.66,79.11l-8.23,1.77-.27-1.24.61-.13.31-.47-.9-4.16-.47-.3-.61.13-.27-1.24,8.23-1.77,3.02.56,1.04,4.85-2.47,1.98ZM363.13,74.1l-.93-.61-1.15.25,1.03,4.78,1.07-.23.66-1.04-.68-3.15Z"/>
          <path class="cls-2" d="M371.22,77.11l-.6-1.11.55-.3.17-.53-2.03-3.74-.54-.15-.55.3-.6-1.11,5.27-2.85.6,1.11-.56.3-.16.53,2.03,3.74.53.16.56-.3.6,1.11-5.27,2.85Z"/>
          <path class="cls-2" d="M378.66,73.02l-.87-.92.46-.43.02-.56-2.92-3.09h-.56s-.46.42-.46.42l-.87-.92,7.05-6.64,2,2.12-1.03.97-.44-.46-1.84.34-1.32,1.25,1.13,1.2.34-.32-.24-1.19.86-.81,2.43,2.58-.86.81-1.17-.31-.34.32,1.3,1.38,1.03-.97.52-2.44-.49-.52,1.03-.97,2.32,2.47-7.11,6.7Z"/>
          <path class="cls-2" d="M391.15,57.81l-1.78,3.24-1.06.94.34.19-.61,1.11-2.41-1.32.72-1.32.28-.02,2.08-1.02.45-.83-.07-.67-.56-.31-.8.64-.68,1.24-2.46,1.71-2.14-1.18.1-2.81,1.67-3.05.92-.84-.28-.15.6-1.1,2.07,1.14-.64,1.17-.28.02-1.55.86-.58,1.07.07.54.41.23.8-.64.76-1.38,2.32-1.61,2.41,1.32-.11,2.82Z"/>
        </g>
        <path class="cls-2" d="M376.27,18.32c-5.8-5.8-13.51-8.99-21.71-8.99s-15.91,3.19-21.71,8.99c-5.8,5.8-8.99,13.51-8.99,21.71s3.19,15.91,8.99,21.71c5.8,5.8,13.51,8.99,21.71,8.99s15.91-3.19,21.71-8.99,8.99-13.51,8.99-21.71-3.19-15.91-8.99-21.71ZM375.99,61.45c-3.14,3.14-6.84,5.5-10.89,7-.01-.36,0-.71.05-1.05.19-1.11,1.47-1.64,2.21-2.44,1.78-1.93,2.83-4.56,2.72-7.2-.03-.84-.19-1.72-.61-2.46-.46-.81-.98-1.01-1.11-1.98-.25-1.92.26-3.85.11-5.78-.3-3.81-1.69-7.22-2.12-10.75-.21-1.73.04-3.83-.24-5.48-.09-.54-.37-1.04-.67-1.5-.22-.35-.76-.79-.71-1.23.09-.8,1.53-1.8,1.97-2.47.64-.97.92-2.15,1.18-3.27.16-.7.39-1.51.37-2.23,0-.34-.09-.64-.16-.95-.08-.37-.15-.73-.03-1.16.13-.48.33-.95.29-1.44-.18-1.9-4.87-2.09-6.22-2.04-2.42.09-4.77.77-7.15,1.13-.45.07-.95-.06-1.42.01-1.15.18-2.47,1.47-3.23,2.31-.6.66-1.9,1.85-1.35,2.74.05.08,1.35,1.26,1.45,1.28.36.11.57-.05.89-.01.37.04.77.5,1.17.12.41-.33.09-.7.2-1.05.06-.19.36-.24.47-.44.49-.86.87-1.63.48-2.64,1.25-.42,2.65-.42,3.92-.11.71.17,1.46.36,2.09.73.51.3,1.32,1.01,1.15,1.61-.02.08-1.05.38-1.44.72-.75.65-.69,1.71-1.33,2.39-1.14,1.21-2.17,2.22-2.66,3.9-.17.59-.02,1.6-.3,2.09-.53.93-3.61,1.46-4.47.91-1.3-.82-3.09-3.01-4.34-3.59-.18-.08-2.08-.72-2.19-.73-.36-.04-1.25.29-1.56.51,0,.15-1.26,1.2-1.46,1.39-.61.56-1.42.99-2.1,1.46-.35.24-.7.48-.95.82-.57.77.16,1.47-.28,2.23-.15.26-.51.43-.75.26.78,1.06,1.74.75,2.73,1.25.85.43.98,1.52,1.71,2.05.38.28,1.1.21,1.31.39.18.15.15.81.47,1.05.58.44,1.47.5,2.1.92.65.42,1.35.8,2.06.33.59-.39.75-1.3,1.66-.83.6.31.74,1.11.46,1.68-.4.82-1.46.93-2.23,1.21-1.28.47-2,1.41-2.64,2.55-.56,1-.4,2.09-.87,3.07-.24.49-1.63.97-1.97,2.32-.12.45-.05.88.04,1.33.03.16.11.36.09.52-.03.18-.24.52-.39.62-.19.13-.48,0-.67-.09-.89-.42-3.34-2.06-4.07-2.72-.68-.63-1.01-1.49-1.52-2.24.3-.25.64.17,1.03.05.29-.1.43-.94.57-1.13.19-.27.77-.35.96-.84.18-.48-.02-.52.4-1.39.42-.87-.47-.9-.59-1.1-.13-.23.08-.75-.21-.96-.19-.13-.51.12-.76.06-.49-.11-1.27-.64-1.92-.42-.26.16-1.22,3.6-1.26,4.12-.1,1.15.15,3.34.64,4.37.13.26.52.44.69.74.64,1.14.86,2.69,1.5,3.86,1.21,2.24,2.3,2.82,3.96,4.44.42.42.36,1.31,1.49,1.12.14-.02,2.01-.93,2.15-1.04.29-.22.52-.76.94-1.08,1.63-1.25,3.79-2.34,4.85-4.26.4-.73.39-1.62.96-2.27.7-.82,1.21.04,1.85.49.26.18.56.27.86.36.97.3,2.14.72,2.99,1.27.6.39,1.12.96,1.3,1.65.26,1.02-.38,1.56-.84,2.34-.47.77-.62,1.74-1.18,2.47-2.52,3.25-5.24,6.58-6.86,10.45-5.87-1.14-11.27-3.99-15.6-8.32-5.72-5.72-8.88-13.33-8.88-21.43s3.15-15.71,8.88-21.43c5.72-5.72,13.33-8.88,21.43-8.88s15.71,3.15,21.43,8.88c5.72,5.72,8.88,13.33,8.88,21.43s-3.15,15.71-8.88,21.43Z"/>
      </g>
    </g>
    <g>
      <g>
        <g>
          <path class="cls-2" d="M18.08,148.62l-.27.72c-.12-.19-.24-.39-.35-.59.21-.04.42-.09.63-.13Z"/>
          <path class="cls-2" d="M15.77,156.7c-.02.22-.04.44-.04.66.23-.18.39-.53.6-.79-.19.04-.37.09-.56.13ZM17.86,163.81c.09.32.19.64.33.93.04-.28.02-.69.09-1.03-.14.03-.28.06-.42.1ZM43.02,117.75c-.11,0-.22,0-.31.02.11,0,.22,0,.33.02,0-.02,0-.03-.02-.04ZM65.9,156.7c-.16-.04-.33-.08-.49-.12.23.27.37.64.5.94.02-.28.01-.55,0-.83Z"/>
          <path class="cls-2" d="M52.57,157.61c-3.49-3.2-9.22-3.81-13.8-3.52-3.39.21-7.17,1.2-9.68,3.57,7.19-3.64,16.27-3.6,23.48-.04Z"/>
          <path class="cls-2" d="M39.79,151.12c.36-.76.71-1.87.3-2.67-.37-.72-1.73-.9-2.33-1.4-.55-.45-.67-1.47-1.53-1.27-.24.05-.93.99-.98,1.23-.47,2.48,3.93,2.38,4.54,4.12Z"/>
          <path class="cls-2" d="M46.29,148.11c.51-.9-.18-2.54-1.15-2.33-.37.08-.65.93-.93,1.19-1.45,1.31-3.8.74-2.21,4.16.66-1.64,3.42-1.48,4.29-3.01Z"/>
          <path class="cls-2" d="M54.95,139.95c-1.43-1.75-4.78-.58-6.58.13-1.27.5-2.52,2.07-1.95-.68-.18-.02-1.1,2.71-2,1.66-.31-.36-.06-.93-.21-1.32-.27,1.13-.89,2.94-1.7.93.08,1.28-.73.6-1.27.08l.04.47-.38-.3c-.59,1.66-.35-.2-.42-.25-.34.32-.72.87-1.23.72l-.13-.64c-.77,1.92-1.32.06-1.61-.93-.14,2.83-1.62.92-2.21-.42.49,2.72-.52,1.27-1.78.76-1.45-.58-3.99-1.38-5.52-1.1-.35.06-.89.46-1.15.72l1.19-.17c-1.03.64-1.5,1.96-1.15,3.1.05-.66.29-1.49.93-1.78-.45,2.57,2.35,3.56,4.46,3.61l-1.15.38,3.61-.64c.05.17-2.64,1.57-2.67,2.16,2.06-1.6,3.96-3.29,6.79-2.89.52.07,1.37.55,1.78.59,1.91.2,3.02-1.52,5.94,0l3.06,2.29-2.46-2.04,3.31.51-1.23-.47c2.13.17,5.04-.93,4.63-3.52.43.18.59.61.81.98l.17,1.02c.1-1.32-.01-2.61-1.27-3.31.5-.18.91.2,1.36.34ZM30.92,142.33c-.47-.71-.24-1.16.64-1.32,2.1-.38,2.53,1.18,4.29,1.57-1.55,1.26-3.68,1.64-4.92-.25ZM49.22,143.56c-1.4.38-2.3-.33-3.44-.98,1.26-.24,1.88-1.44,3.18-1.57.4-.04,2.1.09,2.16.64.05.44-1.43,1.78-1.91,1.91Z"/>
        </g>
        <g>
          <path class="cls-2" d="M17.45,172.9s-.08.03-.12.04l-.74-1.96s.08-.03.12-.04l.74,1.96Z"/>
          <g>
            <path class="cls-2" d="M17.45,172.9s-.08.03-.12.04l-.74-1.96s.08-.03.12-.04l.74,1.96Z"/>
            <path class="cls-2" d="M10.83,181.21c.85-.32,1.31-1.22,1.01-1.99l-2.66-7.01c-.29-.78-1.23-1.14-2.08-.82s-1.31,1.22-1.01,1.99l2.66,7.01c.29.78,1.23,1.14,2.08.82Z"/>
          </g>
          <path class="cls-2" d="M81.48,153.72c-.04-.3-.07-.6-.12-.9-.37-2.61-.98-5.15-1.83-7.61-.11-.32-.23-.64-.34-.96-1.06-2.84-2.45-5.56-4.13-8.1-.23-.34-.46-.68-.69-1.02-1.35-1.91-2.87-3.73-4.56-5.42-1.13-1.13-2.31-2.18-3.54-3.16-.46-.37-.94-.73-1.42-1.07-6.36-4.61-13.87-7.28-21.81-7.68-.11,0-.22-.01-.33-.02-1.15.17-1.25,1.35-1.66-.04h-.16v.4h-.02v-.4h-.02c-.14,0-.28,0-.42,0-4.21.04-8.31.72-12.2,1.98-4.02,1.3-7.82,3.23-11.28,5.73-.48.35-.95.7-1.42,1.07-1.24.99-2.44,2.05-3.58,3.19-1.68,1.68-3.19,3.48-4.53,5.38-.24.34-.47.68-.7,1.02-1.68,2.55-3.07,5.26-4.13,8.1-.12.32-.24.64-.35.96-.85,2.46-1.47,5.01-1.84,7.61-.04.3-.08.6-.12.9-.19,1.62-.29,3.26-.29,4.92,0,.75.02,1.5.06,2.24.02.28.04.56.06.84.17,2.27.52,4.51,1.06,6.7.06.26.13.53.2.79.57,2.13,1.31,4.22,2.22,6.22h0s.01.03.02.04.01.03.02.04c0,0,0,0,0,0,.08.18.16.35.24.53-.34.36-.48.81-.33,1.2l1.11,2.93c.24.62,1.12.86,1.97.54.85-.32,1.35-1.09,1.12-1.72l-1.11-2.93c-.23-.62-1.12-.86-1.97-.54-.04.02-.08.03-.12.05-.07-.16-.14-.31-.21-.47-.91-2.01-1.65-4.09-2.21-6.23,2.65-1.09,5.33-2.06,8.03-2.92h0c.15-.05.3-.1.45-.14.07.53.15,1.06.23,1.58-.39-.2-.85-.24-1.28-.08-.85.32-1.26,1.34-.91,2.27l4.21,11.09c.35.93,1.33,1.42,2.18,1.1.85-.32,1.26-1.34.91-2.27l-4.04-10.63c-.15-.75-.28-1.51-.4-2.27l5.44,14.33c.41,1.08,1.44,1.7,2.29,1.38.85-.32,1.21-1.47.8-2.55l-2.59-6.83s-.08.03-.12.04l-.74-1.96s.08-.03.12-.04l-2.37-6.25c1.17-.32,2.34-.61,3.52-.89.14-.03.28-.07.42-.1.04-.2.11-.38.25-.5.01.14.03.29.05.43.08.71.18,1.44.37,2.12.05.16.9,2.69,1.1,2.29l.17-.68c.08.73.28,1.48.59,2.17-1.38.42-2.75.89-4.1,1.4l.74,1.96c7.55-2.84,15.46-4.27,23.52-4.25,7.97.02,15.79,1.47,23.24,4.29l.51-1.35s.01,0,.02,0l-3.08,8.13c-.41,1.08-.05,2.23.8,2.55.85.32,1.88-.29,2.29-1.38l3.16-8.33c.14.04.28.08.42.13l-2.57,6.78c-.35.93.05,1.95.91,2.27.85.32,1.83-.17,2.18-1.1l2.54-6.68c.14.05.27.11.4.16l-1.93,5.09c-.29.78.16,1.67,1.01,1.99.85.32,1.79-.04,2.08-.82l1.87-4.94c.17.08.33.15.49.23-.11.1-.2.22-.25.36l-1.11,2.93c-.24.62.26,1.39,1.12,1.72.85.32,1.74.08,1.97-.54l1.11-2.93c.14-.37.02-.8-.29-1.15.08-.17.15-.34.23-.51.02-.04.04-.08.05-.12,0,0,0,0,0,0,.91-2.01,1.65-4.09,2.22-6.22-.04-.02-.08-.03-.12-.05.06-.26.13-.53.19-.79.04.02.09.04.13.05.54-2.18.9-4.42,1.07-6.7.02-.28.04-.56.06-.84.04-.76.06-1.52.06-2.29,0-1.64-.1-3.27-.29-4.87ZM64.55,126.23c1.65,1.21,3.22,2.55,4.69,4.03,1.43,1.43,2.74,2.95,3.92,4.55.05.06.09.13.14.19.21.28.41.55.61.83h-.02c1.76,2.53,3.21,5.25,4.33,8.1-3.07-.97-6.17-1.81-9.29-2.54-.04,0-.09-.02-.13-.03-.92-2.62-2.05-5.12-3.38-7.45,0,0,0,0,0,0,1.15.22,2.29.45,3.43.7,1.69.37,3.37.77,5.04,1.21-.19-.28-.39-.56-.59-.83-.05-.06-.1-.13-.14-.19-1.37-.35-2.75-.67-4.13-.98-1.38-.3-2.76-.58-4.14-.84-.68-1.13-1.41-2.21-2.19-3.25-1.21-1.62-2.51-3.07-3.88-4.38,1.79.23,3.58.5,5.36.81.13.02.25.04.38.06ZM65.56,141.57c1.18,1.71.91,4.67.18,6.68-.34-.08-.68-.15-1.02-.22.99-2,1.59-4.35.84-6.47ZM65.4,149c-.32.52-.92,1.32-.94,1.4-.03.16.5,1.25.64,1.23.53-.57,1.01-1.41,1.39-2.39,1.23.28,2.46.58,3.69.9.37,2.27.59,4.62.65,7.02-1.67-.48-3.35-.91-5.03-1.3-.12-.73-.33-1.45-.58-2.14-.4-1.14-1.89-3.6-2.66-5.29.33.06.65.12.98.19h0c.21.41.4.73.45.72.11-.18.23-.37.33-.56.36.07.72.15,1.07.23ZM66.77,148.48c.72-2.17,1-4.79.46-6.64,0,0,0,0,0,0,.31.07.63.14.94.21.78,2.3,1.41,4.72,1.86,7.22-1.09-.28-2.17-.54-3.27-.79ZM63.01,125.16c-.15-.03-.31-.05-.46-.07-1.59-.25-3.18-.47-4.77-.67-1.94-1.7-4.01-3.09-6.17-4.15-.49-.24-.99-.47-1.5-.68,4.6,1.07,8.96,2.96,12.91,5.58ZM48.12,119.71c.41.14.81.28,1.21.44.09.04.19.07.28.11.09.04.19.08.28.12.09.04.19.08.28.12.09.04.19.08.28.13.19.08.37.17.56.26.19.09.37.18.55.28.09.05.18.09.28.14.09.05.18.09.27.15.09.05.18.1.27.15.08.04.16.09.24.13.11.06.22.13.33.19l.24.14c.09.05.18.11.27.16.27.16.53.33.79.51.09.06.17.12.26.18.17.12.35.24.52.36.09.06.17.12.26.19.19.14.38.28.57.43.06.05.13.1.19.15.08.07.17.13.25.2-.12-.01-.24-.03-.36-.04-1.39-.15-2.78-.28-4.18-.39,0,0,0,0-.01,0-1.3-1.58-2.62-3.24-4.16-4.27.18.05.35.11.53.17ZM33.3,119.83c.07-.02.14-.05.21-.07.09-.03.19-.06.28-.09l.29-.09c-1.53,1.03-2.83,2.68-4.13,4.24-.36.03-.72.06-1.08.09-.72.06-1.44.13-2.16.2-.15.01-.31.03-.46.05-.14.01-.28.03-.42.04-.12.01-.24.03-.36.04.37-.3.75-.59,1.13-.87.08-.06.16-.11.24-.17.11-.08.22-.16.34-.24.1-.07.19-.13.29-.2.39-.26.78-.51,1.18-.75.1-.06.2-.12.3-.18.1-.06.2-.12.3-.17.22-.13.44-.25.66-.36.08-.04.17-.09.25-.13.92-.47,1.87-.89,2.83-1.24.09-.04.19-.07.29-.1ZM31.67,119.59c-.51.21-1.01.44-1.51.68-2.16,1.06-4.22,2.45-6.15,4.13-1.59.19-3.17.42-4.75.66-.15.02-.31.05-.46.07,3.94-2.6,8.28-4.48,12.87-5.55ZM8.63,134.77c1.17-1.58,2.47-3.09,3.89-4.51,1.48-1.48,3.06-2.84,4.73-4.05.13-.02.26-.04.38-.06,1.77-.3,3.56-.57,5.34-.8-1.37,1.31-2.68,2.78-3.9,4.4-.77,1.03-1.5,2.11-2.18,3.23-1.43.26-2.86.55-4.28.86-1.33.29-2.66.61-3.99.94-.03.04-.06.07-.09.11.03-.04.05-.07.08-.11ZM7.91,135.79s-.02,0-.03,0c.19-.26.37-.51.57-.77-.09.13-.18.25-.27.38-.09.13-.18.26-.27.38,1.62-.42,3.26-.81,4.89-1.17,1.19-.26,2.38-.5,3.57-.73-1.34,2.33-2.47,4.83-3.39,7.45-.04,0-.09.02-.13.03-3.12.72-6.22,1.56-9.28,2.52,1.12-2.85,2.58-5.57,4.34-8.1ZM14.97,148.46c-.13.03-.26.06-.39.09-.02,0-.03,0-.05,0-.23.05-.45.1-.68.16-.71.17-1.41.34-2.11.52.45-2.51,1.07-4.92,1.86-7.22.27-.06.54-.12.81-.18.05-.01.11-.02.16-.04-.56,1.82-.31,4.46.4,6.66ZM10.06,165.12h0c-.16.05-.32.1-.48.15-.14.05-.28.09-.42.14-.23.07-.47.15-.7.23-.14.05-.28.09-.41.14-.45.15-.89.3-1.34.46-.22.08-.43.15-.65.23-.12.04-.24.09-.36.13-.24.09-.48.18-.73.27-.26.1-.52.19-.78.29-.14.05-.29.11-.43.17-.22.08-.43.17-.65.25-.07.03-.15.06-.22.09-.33.13-.65.26-.98.39-.53-2.18-.87-4.42-1.03-6.7,2.93-1.15,5.89-2.17,8.88-3.06.12-.04.24-.07.35-.11,0,.13,0,.26,0,.39,0,2.16.13,4.3.37,6.39-.15.05-.29.09-.44.14ZM10.14,157.35c-.11.03-.23.07-.34.1-3.01.89-6,1.91-8.95,3.07-.03-.64-.05-1.28-.05-1.93,0-1.76.12-3.51.34-5.23,3.09-1.12,6.21-2.11,9.36-2.96.09-.02.17-.05.26-.07-.35,2.29-.56,4.64-.61,7.02ZM10.64,149.53c-.47.12-.93.25-1.39.38-.23.06-.46.13-.7.2-.23.07-.46.13-.7.2-.33.1-.66.2-.99.3-.27.08-.55.17-.82.25-.2.06-.4.13-.6.19-.3.09-.6.19-.9.29-.3.1-.6.2-.9.3-.21.07-.43.14-.64.22-.29.1-.58.2-.87.3s-.58.2-.87.31c.4-2.61,1.05-5.16,1.95-7.62.38-.12.77-.24,1.16-.36.38-.12.77-.24,1.16-.35,2.32-.69,4.66-1.31,7.01-1.87.05-.01.09-.02.14-.03-.76,2.32-1.36,4.74-1.79,7.23-.08.02-.16.04-.24.07ZM16.92,163.21s-.08.02-.11.03c-.34.08-.68.17-1.02.25-.15.04-.29.07-.44.11-.32.08-.63.16-.95.25-.14.04-.28.08-.43.11-.5-.7-1.29-1.03-1.97-.78-.37.14-.65.44-.81.82-.18-1.77-.27-3.58-.27-5.42,0-.21,0-.42,0-.62,1.61-.46,3.22-.88,4.85-1.27.19-.05.37-.09.56-.13.15-.19.33-.32.59-.31-.02.06-.04.13-.06.19-.49,1.58-.28,3.35.02,4.95.02-.12.36-1.61.64-1.4,0,.98,0,2.04.18,3.03-.26.06-.51.12-.77.18ZM17.51,151.42c-.66,1.44-1.31,2.88-1.61,4.42-.07.02-.13.03-.2.05-.05.01-.09.02-.13.03-.02,0-.05.01-.07.02-.19.05-.38.09-.57.14-.19.05-.38.09-.57.14-.14.04-.29.07-.44.11-.14.04-.29.07-.43.11-.02,0-.05.01-.07.02-.1.03-.2.05-.3.08-.06.02-.13.03-.19.05-.13.03-.25.07-.38.1-.13.03-.25.07-.38.1-.06.02-.13.03-.19.05-.35.1-.7.19-1.05.29.06-2.4.29-4.74.65-7.01,1.21-.32,2.43-.61,3.64-.88.38.98.85,1.82,1.38,2.41.11,0,.64-1.08.64-1.15,0-.09-.51-.89-.87-1.51.36-.08.71-.15,1.07-.23.21-.04.42-.09.63-.13.36-.07.71-.14,1.07-.21-.49,1.01-1.22,2.09-1.64,3ZM17.06,148.01s-.02,0-.04,0c-.33.07-.67.14-1,.21-.66-1.87-.83-4.08-.21-5.98l.42-.59c-.71,2.06-.15,4.38.82,6.35ZM19.55,146.49c-.11.34.02.85,0,.93,0,.03-.02.07-.03.1-.31.06-.61.11-.92.17-.06.01-.12.02-.18.04l2.06-5.4c0-.16-.53-.82-1.11-1.47.29-.05.58-.1.87-.15.4.43.75.89,1,1.45-.65,1.4-1.21,2.86-1.7,4.33ZM18.61,139.19c.31.28.62.55.92.83-.27.05-.55.09-.82.15-.35-.36-.64-.63-.74-.67-.26-.11-.65-.11-.93-.08-.63.07-1.54.73-1.91,1.23-.06.08-.12.17-.17.26-.24.05-.48.1-.73.15-.11.02-.21.05-.32.07-.04,0-.07.02-.11.02.82-2.17,1.78-4.22,2.87-6.15,0,0,0-.02.01-.03.24-.43.48-.86.73-1.28,0,0,.02,0,.03,0,.47-.09.94-.17,1.41-.25.26-.05.51-.09.77-.13.21-.04.42-.07.63-.1.62-.1,1.25-.19,1.87-.28h0c-.93,2.33-.75,5.37-3.51,6.26ZM22.56,132.05c-1.51.21-3.02.45-4.53.71-.02,0-.03,0-.05,0,1.85-2.92,4-5.49,6.39-7.6.1-.01.2-.02.3-.04.31-.04.61-.07.92-.1.08,0,.16-.02.24-.03.01,0,.03,0,.04,0,.33-.04.65-.07.98-.1.28-.03.57-.06.86-.08.12-.01.24-.02.36-.03.09,0,.18-.02.27-.02.04,0,.08,0,.11-.01.26-.02.52-.05.78-.07-.8.93-1.6,1.77-2.47,2.37,2.13.17-1.91,1.31-1.4,1.66l.55.13c-.96.34-1.77.97-2.46,1.7l.68.08c-.71.35-1.21.85-1.57,1.44ZM31.08,167.25c-.03-.41-.06-.8-.12-1.19.16.37.31.75.46,1.14-.11.02-.23.03-.34.05ZM33.72,163.13c-.17.99-.13,2.02-.21,3.01-.84-1.15-1.57-2.52-1.82-3.95-.13-.71-.35-3.95.47-4.2.43-.13,2.68,1.1,2.76,1.4.09.32-1.07,3.02-1.19,3.74ZM44.21,157.83c-.61-.08-1.09.43-1.19.42-.05,0-.47-.54-.85-.6-.82-.12-1.2.51-1.27.51s-.49-.63-1.27-.51c-.3.05-.78.58-.85.6-.13.02-.72-.42-1.02-.42-.51,0-1.03.58-1.1.59-.17.03-.41-.16-.56-.22-.27-.1-.56-.14-.82.01-.2.12-.26.32-.41.47-.21.21-.29.02-.5-.14-.37-.28-.79-.48-1.23-.6-.21-.06-.59-.17-.39-.44.13-.17.79-.24,1-.28.8-.17,1.61-.08,2.4-.22.87-.15,1.74-.28,2.62-.35,2-.16,4.01-.08,5.99.23.42.07.83.15,1.25.19.36.03.69.16,1.04.18.41.03.81.09,1.2.19.09.02.19.06.22.14.02.07,0,.14-.05.19-.05.05-.11.08-.17.12-.26.14-.5.32-.71.52-.21.19-.37.5-.59.66-.2-.58-.6-1.03-1.28-.91-.14.02-.4.34-.42.34-.06,0-.63-.63-1.02-.68ZM43.15,160.16c-.04-.55-.07-1.67.64-1.83,1.63-.36,1.94,3.17-.64,1.83ZM40.47,160.37c-.14.03-.95.03-1.1,0-1.16-.2-.45-2.05.25-2.21.19-.04.49,0,.68.09.54.24.82,1.97.17,2.12ZM41.32,160.37c-.75-.2-.37-2.03.26-2.21,1.05-.31,1.74,1.4,1.44,1.95-.11.2-1.45.32-1.7.25ZM37.08,160.37c-.66-.22-.44-1.9.42-2.04,1.46-.23,1.81,2.77-.42,2.04ZM35.55,158.59c1.14-.33,1.35,1.57.76,1.87-1.55.78-1.64-1.61-.76-1.87ZM36.38,166.7c.61-.62,1.36-1.06,2.14-1.15.14-.01.67-.03.76,0,.27.08.49.46.68,1.01-1.2.01-2.4.06-3.59.14ZM41.74,166.56c.16-.48.36-.82.6-.93.85-.39,2.09.25,2.98,1.07-1.19-.08-2.38-.13-3.58-.14ZM46.84,159.78c-.08-.05-.14,1.27-1.44.68-.41-.19-.3-1.58.17-1.78.83-.35,1.16.78,1.27.76.13-.02,1.8-1.37,2.21-1.44,1.34-.25,1.22,2.4,1.15,3.27-.14,1.68-.99,3.54-2,4.88.05-2.27-.34-4.35-1.36-6.37ZM50.6,167.27c-.13-.02-.27-.04-.4-.06.15-.36.32-.7.51-1.02-.05.35-.09.71-.11,1.08ZM52.17,167.51c-.22-.04-.45-.07-.67-.11.43-2.46,1.36-6.8,1.07-7.58-1.09-3.02-7.28-4.39-10.06-4.54-3.51-.19-11.85.58-13.37,4.54-.32.82.76,5.51,1.1,7.55-.24.04-.48.08-.72.12-1.16-5.47-2.26-11.96,1.23-15.99,1.91-2.21,1.96-.77,4.03-.21.77.21,1.62.27,2.42.3-2.51-.68-5.57-2.46-3.31-5.35.36-.46,2.23-1.86,2.76-1.91,1.25-.11,2.49,2.03,3.82,2.21,2.25.3,3.28-2.37,4.67-2.21.58.07,2.49,1.56,2.84,2.08,1.9,2.78-.95,4.32-3.23,5.09.72,0,1.64-.1,2.33-.3.59-.16,1.9-.97,2.29-.93.81.08,2.3,2.12,2.67,2.84,2.14,4.18,1.17,9.57.1,14.4ZM37.97,144.28c.81-.44,2.66,1.27,3.1,1.23.28-.02,1.93-1.46,2.72-1.36.01,0,.17.13.08.17-.86.19-1.87,1.74-2.63,1.87-1.26.21-2.18-1.48-3.27-1.91ZM55.71,145.22c-.66,1.43-1.85,2.64-3.57,2.29.65-.4,1.5-.89,1.95-1.53.02-.03.35-.48.13-.47-.81,1.19-2.3,1.59-3.69,1.57,1,1.42,1.66,3.13,1.4,4.88.11-.87-1.82-2.4-1.91-2.67-.08-.25-.02-.91-.17-1.36-.79-2.32-4.7-4.54-7.09-4.03-.45.09-1.56.84-1.7.85-.32.03-1.2-.65-1.61-.76-3-.84-6.81,1.61-7.77,4.46-.06.19.06.65,0,.85-.02.07-.94.88-1.1,1.1-.34.47-.53,1.04-.85,1.53-.18-1.79.46-3.35,1.36-4.84-1.29.02-2.36-.34-3.35-1.15.31.71,1.12,1.27,1.83,1.49-2.25.71-3.5-1.73-4.08-3.48-.72-2.18-1.24-5.27,1.19-6.54l-.64-.21,1.53-.09-.64-.47c.28-.48,2.84.18,3.18.13.21-.03-.05-.35.09-.42.16-.09,3.14.72,3.57.85l-1.15-.89c1.64.01,3.2.99,4.46,2l-.85-1.61c1.29.53,2.38,1.5,3.06,2.72l-.34-1.78,1.95,2.29,1.87-2.29-.34,1.87c.55-1.25,1.8-2.36,3.1-2.76.08.16-1.16,1.62-.81,1.57.5-.75,3.53-2.24,4.25-2.12.03,0,.08.1.13.13l-1.15.89c.52-.11,3.28-1,3.57-.85.16.09-.13.36,0,.42.15.08,2.81-.65,3.27-.13l-.76.34,1.61.17-.68.25c2.84,1.22,1.78,5.63.76,7.81ZM59.13,132.06c-.36-.59-.85-1.1-1.55-1.44.08-.14.56.1.59-.17.02-.14-1.97-1.65-2.38-1.61l.55-.21c.37-.25-3.47-1.44-1.4-1.57-.87-.6-1.67-1.44-2.47-2.37,1.55.13,3.09.29,4.63.47.1.01.2.02.3.04,2.39,2.12,4.54,4.69,6.39,7.61.19.3.38.61.56.92.26.43.5.87.74,1.31,1.05,1.92,1.97,3.97,2.75,6.13-.15-.03-.3-.07-.45-.1-.18-.04-.36-.08-.54-.12-.11-.2-.23-.39-.37-.56-.53-.63-1.67-1.19-2.51-.97-.11.03-.49.35-.94.78h0c-.3-.05-.6-.11-.89-.16.32-.28.64-.55.94-.83-2.76-.88-2.61-3.92-3.54-6.26-.12-.31-.26-.6-.43-.88ZM61.43,140.71c.31.05.61.1.92.16-.63.64-1.19,1.26-1.2,1.37.77,1.3,1.27,2.55,1.7,3.99.07.25-.09.73-.08.76.01.04.14.34.32.7-.29-.06-.59-.11-.88-.17-.07-.21-.11-.4-.12-.54,0-.09.26-.05.25-.34-.02-.92-1.55-3.41-1.87-4.41.2-.6.55-1.09.96-1.53ZM65.01,170.91c-.28-.08-.56-.15-.85-.22-1.09-.4-2.19-.77-3.29-1.11.33-.72.57-1.48.62-2.29.33-.09.1.69.17.85.88-1.21,1.27-2.93,1.47-4.48.07.02.14.03.21.05l.27,1.04.12-.95c1.21.28,2.43.59,3.63.92l-2.35,6.2ZM69.92,168.5h0s-1.31,3.44-1.31,3.44c-.14-.04-.28-.09-.42-.13l2.09-5.52c-.11.74-.23,1.48-.37,2.2ZM70.57,164.13c-.15-.44-.45-.79-.86-.94-.69-.26-1.48.09-1.98.79-1.3-.36-2.6-.68-3.9-.98l.38-3.09.68,1.53c.1-1.65.52-3.36-.01-4.97-.02-.07-.05-.14-.07-.21.25.01.45.15.61.33.16.04.33.08.49.12,1.66.39,3.31.82,4.95,1.3,0,.2,0,.39,0,.59,0,1.88-.1,3.73-.29,5.54ZM69.1,142.26s.09.02.14.03c3.14.74,6.25,1.6,9.33,2.59.89,2.46,1.54,5.01,1.94,7.62-3.1-1.12-6.23-2.1-9.39-2.95-.08-.02-.16-.04-.24-.07-.42-2.49-1.02-4.91-1.78-7.23ZM77.42,175.12c-.71-.3-1.43-.58-2.14-.86l.33-.87c.3-.78-.16-1.67-1.01-1.99-.85-.32-1.78.04-2.08.82l-.34.9c-.14-.05-.27-.09-.41-.14l1.29-3.41c.35-.93-.05-1.95-.91-2.27-.4-.15-.83-.12-1.21.05.08-.5.16-1,.23-1.51.15.05.3.09.45.14,2.7.86,5.38,1.84,8.02,2.93-.56,2.14-1.31,4.22-2.22,6.22ZM79.84,168.11c-2.68-1.1-5.39-2.09-8.13-2.95-.15-.05-.29-.09-.44-.14.25-2.11.38-4.25.38-6.43,0-.12,0-.24,0-.36.12.04.24.07.36.11,2.99.89,5.94,1.92,8.87,3.07-.16,2.28-.5,4.51-1.03,6.7ZM80.93,160.57c-2.95-1.16-5.94-2.18-8.95-3.07-.11-.03-.23-.07-.34-.1-.05-2.38-.26-4.73-.61-7.02.09.02.17.05.26.07,3.15.86,6.27,1.85,9.36,2.97.22,1.71.33,3.43.33,5.18,0,.66-.02,1.32-.05,1.98Z"/>
        </g>
        <path class="cls-2" d="M16.33,156.57c.17-.04.35-.08.52-.12.02-.06.04-.13.06-.19-.25,0-.43.13-.59.31ZM18.53,163.22c-.13.12-.21.3-.25.5.1-.02.2-.05.3-.07-.02-.14-.03-.29-.05-.43ZM41.05,117.73c.41,1.39.51.21,1.66.04-.55-.02-1.1-.04-1.66-.04ZM63.76,132.79c-1.54-.27-3.08-.51-4.62-.73.17.28.31.57.43.88,1.6.23,3.19.49,4.77.78-.19-.31-.38-.62-.58-.92ZM64.8,156.26c.03.07.05.14.07.21.18.04.36.08.53.12-.16-.19-.35-.32-.61-.33ZM63.76,132.79c-1.54-.27-3.08-.51-4.62-.73.17.28.31.57.43.88,1.6.23,3.19.49,4.77.78-.19-.31-.38-.62-.58-.92ZM64.8,156.26c.03.07.05.14.07.21.18.04.36.08.53.12-.16-.19-.35-.32-.61-.33ZM63.76,132.79c-1.54-.27-3.08-.51-4.62-.73.17.28.31.57.43.88,1.6.23,3.19.49,4.77.78-.19-.31-.38-.62-.58-.92ZM64.8,156.26c.03.07.05.14.07.21.18.04.36.08.53.12-.16-.19-.35-.32-.61-.33ZM63.76,132.79c-1.54-.27-3.08-.51-4.62-.73.17.28.31.57.43.88,1.6.23,3.19.49,4.77.78-.19-.31-.38-.62-.58-.92ZM64.8,156.26c.03.07.05.14.07.21.18.04.36.08.53.12-.16-.19-.35-.32-.61-.33ZM63.76,132.79c-1.54-.27-3.08-.51-4.62-.73.17.28.31.57.43.88,1.6.23,3.19.49,4.77.78-.19-.31-.38-.62-.58-.92ZM64.8,156.26c.03.07.05.14.07.21.18.04.36.08.53.12-.16-.19-.35-.32-.61-.33ZM64.8,156.26c.03.07.05.14.07.21.18.04.36.08.53.12-.16-.19-.35-.32-.61-.33ZM63.76,132.79c-1.54-.27-3.08-.51-4.62-.73.17.28.31.57.43.88,1.6.23,3.19.49,4.77.78-.19-.31-.38-.62-.58-.92ZM64.8,156.26c.03.07.05.14.07.21.18.04.36.08.53.12-.16-.19-.35-.32-.61-.33ZM63.76,132.79c-1.54-.27-3.08-.51-4.62-.73.17.28.31.57.43.88,1.6.23,3.19.49,4.77.78-.19-.31-.38-.62-.58-.92ZM64.8,156.26c.03.07.05.14.07.21.18.04.36.08.53.12-.16-.19-.35-.32-.61-.33ZM63.76,132.79c-1.54-.27-3.08-.51-4.62-.73.17.28.31.57.43.88,1.6.23,3.19.49,4.77.78-.19-.31-.38-.62-.58-.92ZM64.8,156.26c.03.07.05.14.07.21.18.04.36.08.53.12-.16-.19-.35-.32-.61-.33ZM63.76,132.79c-1.54-.27-3.08-.51-4.62-.73.17.28.31.57.43.88,1.6.23,3.19.49,4.77.78-.19-.31-.38-.62-.58-.92ZM64.8,156.26c.03.07.05.14.07.21.18.04.36.08.53.12-.16-.19-.35-.32-.61-.33ZM63.76,132.79c-1.54-.27-3.08-.51-4.62-.73.17.28.31.57.43.88,1.6.23,3.19.49,4.77.78-.19-.31-.38-.62-.58-.92ZM63.76,132.79c-1.54-.27-3.08-.51-4.62-.73.17.28.31.57.43.88,1.6.23,3.19.49,4.77.78-.19-.31-.38-.62-.58-.92ZM64.8,156.26c.03.07.05.14.07.21.18.04.36.08.53.12-.16-.19-.35-.32-.61-.33Z"/>
      </g>
      <g>
        <path class="cls-2" d="M26.08,179.69c-1.81.35-2.72.55-4.51,1.01-.14-.55-.21-.83-.35-1.38.14-.04.21-.05.35-.09.05-.19.07-.29.12-.48-.46-1.86-.69-2.79-1.15-4.64-.14-.15-.21-.22-.35-.37-.15.04-.23.06-.38.1-.14-.55-.21-.83-.35-1.38,2-.51,3.01-.74,5.03-1.13.56.18.84.27,1.39.46.17.94.25,1.41.41,2.36-.4.36-.6.54-.99.91.59.17.88.26,1.46.45.22,1.29.34,1.94.56,3.23-.5.37-.75.56-1.24.94ZM23.77,173.28c-.18-.1-.27-.16-.46-.26-.25.05-.37.08-.61.13.17.76.25,1.14.41,1.9.24-.05.36-.08.6-.13.12-.17.18-.25.31-.42-.1-.49-.15-.73-.25-1.22ZM24.58,176.74c-.22-.13-.33-.2-.55-.33-.24.05-.35.07-.59.13.19.86.28,1.29.47,2.16.23-.05.34-.07.57-.12.14-.21.21-.31.36-.52-.11-.52-.16-.78-.27-1.3Z"/>
        <path class="cls-2" d="M33.2,178.77c-1.23.12-1.85.19-3.07.35-.67-.45-1.01-.66-1.7-1.09-.36-2.31-.54-3.47-.9-5.78.56-.7.85-1.05,1.43-1.74,1.37-.19,2.06-.26,3.43-.39.72.47,1.07.7,1.77,1.18.17,2.33.26,3.5.43,5.83-.57.65-.85.98-1.39,1.64ZM31.6,172.52c-.18-.27-.27-.4-.46-.67-.21.02-.32.04-.53.06-.14.34-.2.51-.34.84.19,1.58.29,2.37.49,3.96.18.27.27.4.44.67.2-.02.29-.03.49-.06.13-.34.19-.5.32-.84-.17-1.59-.25-2.38-.42-3.96Z"/>
        <path class="cls-2" d="M40.48,178.35c-1.89,0-2.84.02-4.73.13-.03-.57-.05-.85-.08-1.42.14,0,.21-.01.36-.02.08-.18.12-.27.21-.45-.1-1.91-.15-2.87-.25-4.78-.11-.17-.16-.25-.27-.42-.15,0-.23.01-.38.02-.03-.57-.05-.85-.08-1.42,2.1-.13,3.16-.15,5.27-.15.71.53,1.06.8,1.74,1.35-.06,2.23-.08,3.35-.14,5.58-.67.62-.99.94-1.63,1.57ZM39.64,172.24c-.19-.36-.29-.53-.48-.89-.29,0-.44,0-.73.01.05,2.2.07,3.3.12,5.5.25,0,.38,0,.63-.01.19-.4.29-.59.49-.99,0-1.45-.01-2.18-.02-3.63Z"/>
        <path class="cls-2" d="M43.08,178.41c.02-.57.03-.85.05-1.42.14,0,.21,0,.36.01.1-.17.15-.26.25-.43.09-1.91.13-2.87.22-4.78-.09-.18-.14-.27-.23-.45-.15,0-.23,0-.38-.02.02-.57.03-.85.05-1.42,1.5.06,2.25.1,3.74.23-.05.57-.07.85-.12,1.42-.16-.01-.23-.02-.39-.03-.11.17-.16.25-.27.42-.15,1.91-.22,2.86-.36,4.77.08.18.11.27.19.45.15.01.22.02.36.03-.05.57-.07.85-.12,1.42-1.34-.11-2.01-.15-3.36-.21Z"/>
        <path class="cls-2" d="M47.23,178.68c.05-.57.08-.85.13-1.42.14.01.21.02.36.03.11-.17.16-.25.27-.41.19-1.9.29-2.86.49-4.76-.08-.18-.12-.28-.2-.46-.15-.02-.23-.02-.38-.04.05-.57.08-.85.13-1.42,2.42.23,3.62.39,6.02.79-.22,1.29-.33,1.94-.55,3.24-.34-.06-.51-.08-.84-.14.04-.28.07-.43.11-.71-.31-.51-.46-.77-.78-1.27-.44-.06-.67-.1-1.11-.15-.1.74-.15,1.11-.24,1.84.11.01.17.02.28.04.21-.44.32-.66.54-1.09.29.04.43.06.71.1-.24,1.58-.35,2.37-.59,3.94-.27-.04-.41-.06-.68-.1-.08-.48-.13-.72-.21-1.2-.11-.01-.17-.02-.28-.04-.11.84-.17,1.26-.28,2.11.32.04.48.06.81.11.56-.57.84-.85,1.42-1.4.05-.31.07-.47.12-.79.33.05.5.08.83.14-.25,1.5-.38,2.26-.64,3.76-2.17-.37-3.26-.51-5.45-.72Z"/>
        <path class="cls-2" d="M57.4,180.45c-.81-.19-1.22-.28-2.04-.45-.25-.27-.38-.4-.64-.67-.03.17-.05.26-.08.43-.28-.06-.42-.08-.7-.13.23-1.22.34-1.83.57-3.04.35.06.52.1.87.17.01.11.02.17.04.28.32.68.47,1.01.77,1.69.21.05.32.07.53.12.16-.14.24-.22.41-.36.06-.28.09-.42.16-.7-.18-.22-.27-.33-.44-.55-.33-.07-.49-.11-.81-.17-.49-.72-.75-1.07-1.27-1.78.2-1.08.3-1.62.51-2.7.72-.44,1.08-.66,1.81-1.09.86.18,1.28.27,2.14.47.25.24.37.37.62.61.03-.14.05-.21.08-.35.31.07.46.11.77.19-.26,1.03-.39,1.55-.65,2.58-.32-.08-.47-.12-.79-.2-.01-.11-.02-.17-.03-.28-.26-.5-.39-.75-.66-1.25-.29-.07-.44-.1-.73-.17-.14.12-.2.18-.34.29-.04.21-.07.31-.11.52.19.22.28.33.47.55.37.08.56.13.93.21.47.7.7,1.04,1.14,1.75-.31,1.2-.46,1.8-.77,3-.71.41-1.05.61-1.74,1.03Z"/>
      </g>
      <g>
        <path class="cls-2" d="M19.53,122.08c-1.89.91-2.82,1.41-4.63,2.52-.3-.48-.45-.73-.74-1.21.14-.09.21-.13.36-.22,0-.21,0-.31,0-.51-.98-1.64-1.47-2.47-2.45-4.11-.19-.09-.29-.14-.48-.23-.16.1-.24.14-.39.24-.3-.48-.45-.73-.74-1.21,2.11-1.29,3.19-1.88,5.39-2.94.67-.01,1.01-.01,1.68,0,.39.87.59,1.31.98,2.18-.37.48-.55.72-.9,1.21.7-.02,1.04-.02,1.73-.02.53,1.2.8,1.8,1.33,3-.46.51-.69.77-1.13,1.3ZM15.49,116.56c-.23-.04-.34-.06-.57-.1-.26.14-.4.21-.66.35.37.68.55,1.03.91,1.71.25-.14.38-.2.64-.33.1-.21.15-.31.24-.51-.23-.45-.34-.67-.56-1.11ZM17.19,119.68c-.27-.06-.41-.09-.68-.14-.25.13-.37.19-.62.33.42.78.62,1.17,1.04,1.95.24-.13.36-.19.59-.31.11-.25.16-.38.27-.63-.24-.47-.36-.71-.6-1.19Z"/>
        <path class="cls-2" d="M26.57,111.94c-.06.2-.09.3-.15.5.56,2.05.85,3.07,1.41,5.12-.4.7-.59,1.05-.96,1.76-1.06.32-1.59.5-2.64.88-.74-.29-1.12-.43-1.89-.7-.8-2.01-1.2-3.01-2-5.02-.17-.12-.26-.18-.43-.3-.19.08-.28.12-.47.19-.22-.53-.33-.79-.54-1.31,1.77-.73,2.67-1.06,4.48-1.65.18.54.26.81.44,1.35-.19.06-.29.09-.48.16-.05.2-.08.3-.13.5.53,1.58.8,2.36,1.33,3.94.33.19.49.29.82.48.18-.06.26-.09.44-.14.15-.35.23-.52.38-.87-.48-1.59-.73-2.39-1.21-3.98-.16-.13-.24-.2-.4-.34-.17.05-.26.08-.43.13-.17-.54-.26-.81-.43-1.35,1.2-.38,1.8-.55,3.01-.87.14.55.22.83.36,1.38-.2.05-.3.08-.5.13Z"/>
        <path class="cls-2" d="M29.94,118.38c-.13-.55-.2-.83-.33-1.38.16-.04.24-.06.39-.09.06-.19.09-.29.16-.49-.42-1.87-.63-2.8-1.05-4.67-.15-.15-.22-.22-.38-.36-.17.04-.26.06-.44.1-.13-.55-.2-.83-.33-1.38,1.71-.41,2.57-.58,4.29-.86.09.56.14.84.23,1.4-.18.03-.27.04-.45.07-.08.19-.12.29-.2.48.33,1.88.5,2.83.83,4.71.13.16.19.23.32.39.16-.03.24-.04.41-.07.09.56.14.84.23,1.4-1.48.24-2.22.39-3.69.74Z"/>
        <path class="cls-2" d="M34.8,117.47c-.08-.56-.12-.84-.2-1.41.16-.02.24-.03.4-.05.08-.19.12-.28.2-.47-.24-1.9-.36-2.85-.6-4.75-.13-.16-.2-.24-.34-.4-.18.02-.27.04-.44.06-.08-.56-.12-.84-.2-1.41,1.78-.25,2.67-.34,4.45-.45.04.57.05.85.09,1.42-.22.01-.34.02-.56.04-.1.18-.15.27-.24.46.16,2.08.24,3.12.41,5.21.22-.02.33-.03.55-.04.48-.67.73-1.01,1.25-1.67-.02-.35-.02-.53-.04-.88.4-.02.6-.02,1-.03.04,1.56.06,2.34.1,3.89-2.34.06-3.51.15-5.84.48Z"/>
        <path class="cls-2" d="M47.03,117.23c-2.1-.21-3.15-.26-5.26-.25,0-.57,0-.85,0-1.42.16,0,.24,0,.4,0,.1-.18.16-.26.26-.44.02-1.91.03-2.87.05-4.78-.11-.18-.17-.26-.28-.44-.18,0-.27,0-.45,0,0-.57,0-.85,0-1.42,2.45,0,3.68.05,6.12.29.77.61,1.15.92,1.88,1.56-.3,2.21-.44,3.32-.74,5.53-.81.53-1.21.81-1.97,1.38ZM46.64,111.06c-.19-.37-.28-.56-.48-.93-.33-.02-.5-.04-.84-.05-.13,2.2-.19,3.29-.32,5.49.28.02.42.03.71.05.25-.38.38-.56.63-.94.12-1.45.18-2.17.3-3.62Z"/>
        <path class="cls-2" d="M50.2,117.65c.09-.56.14-.84.23-1.4.16.03.24.04.4.07.13-.16.2-.23.33-.39.33-1.88.5-2.83.83-4.71-.08-.19-.12-.29-.21-.48-.18-.03-.26-.04-.44-.07.09-.56.14-.84.23-1.4,1.73.28,2.59.45,4.29.86-.13.55-.2.83-.33,1.38-.18-.04-.27-.06-.44-.1-.15.15-.22.22-.37.37-.42,1.87-.63,2.8-1.05,4.67.06.19.09.29.15.48.16.04.24.06.4.09-.13.55-.2.83-.33,1.38-1.47-.35-2.2-.5-3.69-.74Z"/>
        <path class="cls-2" d="M63.93,114.17c-.17.12-.26.18-.42.3-.98,2.47-1.47,3.7-2.46,6.17-.8-.32-1.2-.47-2.01-.75.06-.17.09-.25.15-.41-.35-1.92-.56-2.89-1.07-4.82-.29.98-.44,1.47-.74,2.46.08.32.11.48.19.79.22.07.33.1.54.17-.17.54-.26.81-.43,1.35-1.04-.33-1.57-.49-2.63-.76.14-.55.22-.83.36-1.38.12.03.18.05.3.08.2-.2.3-.3.51-.49.48-1.74.72-2.61,1.2-4.36-.07-.24-.11-.36-.19-.6-.15-.04-.23-.06-.38-.1.14-.55.22-.83.36-1.38,1.45.38,2.17.59,3.6,1.07-.07.2-.1.3-.17.5.43,1.64.62,2.46.93,4.09.3-.8.45-1.19.74-1.99-.05-.25-.08-.37-.13-.62-.23-.09-.35-.13-.58-.21.19-.54.29-.8.48-1.34,1.12.4,1.67.61,2.77,1.06-.22.53-.32.79-.54,1.31-.15-.06-.22-.09-.37-.15Z"/>
        <path class="cls-2" d="M70.14,121.6c-.66,1.09-.98,1.64-1.64,2.74-.35-.21-.53-.31-.88-.52.14-.24.21-.37.35-.61-.55.05-.82.08-1.37.15-.84-.46-1.26-.67-2.11-1.09-.37-.89-.57-1.34-.99-2.22.88-1.98,1.32-2.97,2.19-4.94,1.07-.26,1.61-.38,2.71-.6,1,.49,1.5.75,2.48,1.29.26.39.39.58.64.97.09-.15.13-.23.22-.38.39.22.59.34.98.57-.69,1.16-1.03,1.73-1.72,2.89-.39-.23-.58-.34-.97-.57.09-.15.13-.23.22-.38-.19-.76-.29-1.14-.51-1.91-.24-.13-.37-.2-.61-.32-.44.25-.66.37-1.09.63-.66,1.3-.99,1.95-1.65,3.25.02.37.04.56.06.92.24.13.36.19.6.32.11-.06.16-.1.26-.16.27-.5.41-.75.68-1.25-.26-.14-.4-.21-.66-.35.28-.53.42-.8.69-1.33,1.37.71,2.04,1.1,3.37,1.91-.31.51-.47.77-.78,1.28-.18-.11-.27-.17-.46-.28Z"/>
      </g>
    </g>
    <g>
      <path class="cls-2" d="M116.82,147.04v-1.55c-.51-1.06-.76-1.6-1.27-2.71-.86-.48-1.28-.75-2.14-1.38v4.64c.26.19.39.28.64.45.29-.69.43-1.04.71-1.75.35.22.52.32.87.51v6.86c-.35-.19-.52-.29-.87-.51-.29-1.14-.43-1.71-.71-2.86-.26-.17-.39-.27-.64-.45v3.94c.16.47.24.7.4,1.17.48.33.71.49,1.19.77v2.4c-2.44-1.47-3.67-2.49-6.11-5.29v-2.4c.32.36.48.54.8.88.16-.18.24-.28.39-.46,0-3.98,0-5.97,0-9.95-.16-.51-.24-.77-.39-1.29-.32-.34-.48-.52-.8-.88v-2.4c3.68,4.21,5.52,5.44,9.2,6.78v6.01c-.51-.19-.76-.29-1.27-.52Z"/>
      <path class="cls-2" d="M127.28,158.8c-2.22.46-3.33.54-5.55.29-1.08-1.15-1.62-1.78-2.7-3.13v-11.34c1.08-.86,1.62-1.34,2.7-2.39,2.22.25,3.33.17,5.55-.29,1.07.81,1.61,1.18,2.69,1.85,0,4.54,0,6.81,0,11.34-1.07,1.53-1.61,2.27-2.69,3.67ZM126.25,146.43c-.32-.64-.48-.97-.8-1.62-.76.08-1.14.1-1.9.1-.31.69-.47,1.03-.78,1.71,0,3.3,0,4.95,0,8.25.31.71.47,1.06.78,1.75.76,0,1.14-.02,1.9-.1.32-.73.48-1.09.8-1.83v-8.25Z"/>
      <path class="cls-2" d="M139.73,152.94c-.64-.14-.96-.21-1.59-.37v-4.49c-.31-.22-.47-.33-.78-.56-.64.38-.96.56-1.59.9,0,1.44,0,2.17,0,3.61.16.26.24.39.4.65.29-.16.43-.24.71-.4v2.4c-2.25,1.3-3.38,1.88-5.64,2.75v-2.4c.32-.12.48-.19.8-.32.16-.42.24-.63.39-1.04,0-3.98,0-5.97,0-9.95-.16-.28-.24-.42-.39-.71-.32.13-.48.2-.8.32v-2.4c3.27-1.26,4.9-2.21,8.17-4.29.79.04,1.19.05,1.99.07,0,2.06,0,3.09,0,5.16-.79,1.15-1.19,1.72-1.99,2.85.89.05,1.33.07,2.22.09v3.61c.25.18.38.27.63.45.25-.17.38-.26.63-.43v2.4c-1.27.88-1.9,1.31-3.16,2.12ZM138.14,140.53c-.31-.09-.47-.13-.78-.23-.64.38-.96.56-1.59.9,0,1.93,0,2.89,0,4.82.64-.35.96-.53,1.59-.9.31-.46.47-.7.78-1.17,0-1.37,0-2.06,0-3.43Z"/>
      <path class="cls-2" d="M143.14,150.65v-2.4c.32-.22.48-.33.8-.56.16-.46.24-.69.39-1.15,0-3.98,0-5.97,0-9.95-.16-.24-.24-.36-.39-.6-.32.22-.48.34-.8.56,0-.96,0-1.44,0-2.4,3.78-2.63,5.66-4.11,9.44-6.72,0,2.4,0,3.6,0,6.01-.51.35-.76.53-1.27.89,0-.62,0-.93,0-1.55-.51-.47-.76-.7-1.27-1.16-.95.68-1.43,1.02-2.38,1.71,0,1.72,0,2.58,0,4.31.29-.21.43-.31.71-.51.29-1.1.43-1.65.71-2.76.35-.25.53-.38.88-.63,0,2.75,0,4.13,0,6.88-.35.25-.53.38-.88.63-.29-.75-.43-1.13-.71-1.88-.29.21-.43.31-.71.51,0,2.06,0,3.09,0,5.16.86-.62,1.28-.93,2.14-1.54.67-1.58,1-2.37,1.66-3.94,0-.55,0-.82,0-1.37.51-.36.76-.54,1.27-.89v6.52c-3.84,2.64-5.76,4.15-9.6,6.82Z"/>
      <path class="cls-2" d="M162.8,123.85c-1.24,5.84-1.85,8.8-3.09,14.77v.85c-1.3.7-1.95,1.09-3.26,1.9v-.85c-1.17-4.57-1.75-6.83-2.92-11.34-.26.17-.39.26-.64.44,0-.96,0-1.44,0-2.4,2.38-1.63,3.57-2.42,5.95-3.77,0,.96,0,1.44,0,2.4-.41.23-.61.35-1.02.59-.13.43-.19.64-.32,1.07.67,2.83,1,4.25,1.66,7.11.73-3.63,1.09-5.44,1.82-9.03-.12-.29-.19-.43-.31-.72-.41.21-.62.32-1.03.55,0-.96,0-1.44,0-2.4,1.52-.83,2.28-1.2,3.8-1.83v2.4c-.25.1-.38.16-.63.27Z"/>
      <path class="cls-2" d="M163.91,137.5v-2.4c.32-.13.48-.19.8-.3.16-.41.24-.61.39-1.01,0-3.98,0-5.97,0-9.95-.16-.3-.24-.44-.39-.74-.32.11-.48.17-.8.3,0-.96,0-1.44,0-2.4,3.78-1.48,5.66-1.93,9.44-1.56,0,2.4,0,3.6,0,6.01-.51-.05-.76-.06-1.27-.08v-1.55c-.51-.84-.76-1.24-1.27-2.04-.95.05-1.43.11-2.38.29,0,1.72,0,2.58,0,4.31.29-.05.43-.08.71-.12.29-.94.43-1.41.71-2.33.35-.04.53-.05.88-.07,0,2.75,0,4.13,0,6.88-.35.02-.53.04-.88.07-.29-.93-.43-1.39-.71-2.31-.29.04-.43.07-.71.12v5.16c.86-.16,1.28-.21,2.14-.27.67-1.15,1-1.71,1.66-2.79v-1.37c.51.01.76.03,1.27.09v6.52c-3.84-.42-5.76.04-9.6,1.55Z"/>
      <path class="cls-2" d="M183.1,140.31c-.64-1.08-.96-1.6-1.59-2.59,0-1.79,0-2.69,0-4.49-.31-.63-.47-.94-.78-1.56-.64-.41-.96-.59-1.59-.91v3.61c.16.43.24.65.4,1.09.29.15.43.24.71.41v2.4c-2.25-1.35-3.38-1.75-5.64-2.16v-2.4c.32.06.48.09.8.17.16-.31.24-.47.39-.78,0-3.98,0-5.97,0-9.95-.16-.39-.24-.59-.39-.97-.32-.07-.48-.11-.8-.17,0-.96,0-1.44,0-2.4,3.27.59,4.9,1.29,8.17,3.94.79,1.19,1.19,1.82,1.99,3.15,0,2.06,0,3.09,0,5.16-.79-.17-1.19-.21-1.99-.24.89,1.34,1.33,2.05,2.22,3.57,0,1.44,0,2.17,0,3.61.25.61.38.91.63,1.53.25.27.38.41.63.69v2.4c-1.27-1.43-1.9-2.05-3.16-3.11ZM181.51,125.68c-.31-.5-.47-.74-.78-1.22-.64-.41-.96-.59-1.59-.91,0,1.93,0,2.89,0,4.82.64.32.96.51,1.59.91.31-.08.47-.11.78-.17,0-1.37,0-2.06,0-3.43Z"/>
      <path class="cls-2" d="M115.67,168.48v6.19c-.54-.3-.81-.46-1.34-.81v-1.37c-.7.16-1.05.21-1.75.27-1.46-1.17-2.18-1.87-3.64-3.53-1.21-2.48-1.81-3.81-3.02-6.65,0-4.33,0-6.5,0-10.83,1.21.43,1.81.55,3.02.62,1.56,1.78,2.35,2.52,3.91,3.75.56.85.83,1.26,1.39,2.04v-.85c.51.34.76.49,1.27.78v6.37c-.57-.32-.86-.5-1.43-.88v-1.03c-.76-1.69-1.14-2.57-1.9-4.38-.63-.53-.95-.82-1.58-1.44-.41.49-.62.73-1.03,1.18v7.73c.32,1.04.48,1.55.8,2.56.63.64.95.93,1.58,1.48.16-.22.24-.32.39-.54,0-1.17,0-1.75,0-2.91-.5-.42-.76-.64-1.26-1.11v-2.4c2.22,2.08,3.32,2.83,5.54,3.88v2.4c-.38-.18-.57-.28-.95-.49Z"/>
      <path class="cls-2" d="M125.67,176.6c-.64-.47-.96-.72-1.59-1.25v-4.49c-.31-.4-.47-.61-.78-1.03-.64-.01-.96-.03-1.59-.1v3.61c.16.37.24.55.4.92.29.03.43.04.71.05v2.4c-2.25-.1-3.38-.33-5.64-1.31v-2.4c.32.14.48.2.8.32.16-.29.24-.44.39-.74v-9.95c-.16-.4-.24-.61-.39-1.02-.32-.12-.48-.18-.8-.32v-2.4c3.27,1.41,4.9,1.57,8.17,1.23.79.46,1.19.67,1.99,1.06v5.16c-.79.78-1.19,1.16-1.99,1.86.89.53,1.33.76,2.22,1.19,0,1.44,0,2.17,0,3.61.25.3.38.44.63.73.25-.06.38-.1.63-.17v2.4c-1.27.36-1.9.49-3.16.64ZM124.07,163.32c-.31-.27-.47-.41-.78-.69-.64-.01-.96-.03-1.59-.1v4.82c.64.07.96.09,1.59.1.31-.27.47-.41.78-.7v-3.43Z"/>
      <path class="cls-2" d="M129.07,175.89c0-.96,0-1.44,0-2.4.32-.09.48-.14.8-.25.16-.4.24-.6.39-1.01,0-3.98,0-5.97,0-9.95-.16-.3-.24-.45-.39-.74-.32.1-.48.15-.8.25v-2.4c2.32-.68,3.47-1.19,5.79-2.38v2.4c-.32.16-.48.25-.8.4-.16.43-.24.64-.39,1.07,0,3.98,0,5.97,0,9.95.16.28.24.41.39.69.32-.16.48-.24.8-.4v2.4c-2.32,1.2-3.47,1.71-5.79,2.38Z"/>
      <path class="cls-2" d="M146.04,152.22c-.16.47-.24.7-.4,1.17,0,5.29,0,7.94,0,13.23-1.2.86-1.81,1.29-3.01,2.12v-.85c-1.81-2.67-2.71-4.03-4.52-6.85,0,2.74,0,4.11,0,6.86.19.44.29.66.48,1.1.44-.27.66-.41,1.11-.7v2.4c-1.65,1.06-2.47,1.56-4.11,2.45v-2.4c.29-.15.43-.23.71-.39.19-.66.29-1,.48-1.66,0-3.77,0-5.66,0-9.44-.16-.26-.24-.39-.4-.65-.31.18-.47.26-.78.43v-2.4c2-1.08,3-1.7,4.99-3.02v1.03c1.49,2.25,2.23,3.34,3.72,5.52v-5.83c-.16-.24-.24-.36-.39-.6-.38.27-.57.4-.95.66,0-.96,0-1.44,0-2.4,1.55-1.07,2.33-1.63,3.88-2.75v2.4c-.31.23-.47.34-.78.56Z"/>
      <path class="cls-2" d="M155.94,159.42c-3.42,2.18-5.14,3.47-8.56,5.93v-2.4c.32-.23.48-.34.8-.57.16-.46.24-.7.39-1.16,0-3.98,0-5.97,0-9.95-.16-.24-.24-.36-.39-.59-.32.23-.48.34-.8.57v-2.4c3.42-2.47,5.14-3.76,8.56-5.93,1.14.38,1.71.58,2.85,1.04,0,4.26,0,6.39,0,10.65-1.14,1.88-1.71,2.85-2.85,4.81ZM155.16,147.88c-.35-.52-.53-.78-.88-1.3-.88.59-1.33.89-2.21,1.51,0,4.54,0,6.81,0,11.34.88-.62,1.33-.92,2.21-1.51.35-.99.53-1.48.88-2.46,0-3.03,0-4.55,0-7.58Z"/>
      <path class="cls-2" d="M159.9,157.09c0-.96,0-1.44,0-2.4.32-.17.48-.25.8-.42.16-.43.24-.65.39-1.07,0-3.98,0-5.97,0-9.95-.16-.27-.24-.41-.39-.68-.32.16-.48.25-.8.42v-2.4c2.32-1.24,3.47-1.77,5.79-2.51v2.4c-.32.1-.48.15-.8.27-.16.41-.24.61-.39,1.02,0,3.98,0,5.97,0,9.95.16.29.24.44.39.73.32-.11.48-.17.8-.27,0,.96,0,1.44,0,2.4-2.32.73-3.47,1.27-5.79,2.51Z"/>
      <path class="cls-2" d="M176.87,140.31c-.16.3-.24.45-.4.75,0,5.29,0,7.94,0,13.23-1.2-.37-1.81-.49-3.01-.62v-.85c-1.81-4.11-2.71-6.03-4.52-9.66,0,2.74,0,4.11,0,6.86.19.53.28.79.47,1.32.44-.06.66-.08,1.11-.11v2.4c-1.65.12-2.47.28-4.11.75,0-.96,0-1.44,0-2.4.29-.08.43-.12.71-.19.19-.6.29-.91.48-1.51,0-3.77,0-5.66,0-9.44-.16-.31-.24-.47-.4-.78-.31.08-.47.12-.78.21v-2.4c2-.57,3-.75,4.99-.79v1.03c1.49,3.2,2.23,4.87,3.72,8.42,0-2.33,0-3.5,0-5.83-.16-.38-.24-.58-.39-.96-.38-.07-.57-.1-.95-.15v-2.4c1.55.2,2.33.39,3.88,1v2.4c-.31-.12-.47-.18-.78-.29Z"/>
      <path class="cls-2" d="M188.44,157.64c0,2.47,0,3.71,0,6.19-.54-.72-.81-1.07-1.34-1.72v-1.37c-.7-.23-1.05-.31-1.75-.42-1.46-1.52-2.18-2.15-3.64-3.19-1.21-1.97-1.81-2.88-3.02-4.56,0-4.33,0-6.5,0-10.83,1.21-.74,1.81-1.04,3.02-1.48,1.56,1.12,2.35,1.81,3.91,3.48.56,1.01.83,1.53,1.39,2.61v-.85c.51.61.76.93,1.27,1.61,0,2.55,0,3.82,0,6.37-.57-.76-.86-1.12-1.43-1.79v-1.03c-.76-2.08-1.14-3.08-1.9-5.02-.63-.64-.95-.93-1.58-1.48-.41.54-.62.82-1.03,1.4,0,3.09,0,4.64,0,7.73.32.94.48,1.41.8,2.37.63.53.95.82,1.58,1.44.16-.2.24-.29.39-.48,0-1.17,0-1.75,0-2.91-.5-.51-.76-.76-1.26-1.21v-2.4c2.22,2.01,3.32,3.27,5.54,6.47v2.4c-.38-.55-.57-.81-.95-1.32Z"/>
    </g>
    <g>
      <g>
        <path class="cls-2" d="M220.08,150c-1.76,4.2-2.64,6.17-4.36,9.79-.03,1.63-.05,2.44-.08,4.07.18.54.28.81.46,1.35.54.18.82.27,1.36.45-.03,1.59-.05,2.38-.08,3.97-3.39-1.32-5.07-2.06-8.35-3.72.01-1.34.02-2.01.03-3.36.57.24.86.35,1.43.58.2-.35.3-.53.5-.89.02-1.4.03-2.11.04-3.51-1.62-4.24-2.44-6.2-4.13-9.74-.24-.02-.36-.03-.59-.05v-3.12c3.35.02,5.02.03,8.37.04-.03,1.5-.04,2.26-.07,3.76-.55-.04-.83-.06-1.38-.1,0,.27,0,.41-.01.68.69,1.71,1.03,2.59,1.7,4.41.74-1.58,1.11-2.41,1.86-4.1,0-.29,0-.44.01-.73-.52-.04-.78-.05-1.29-.09.03-1.53.04-2.29.07-3.82,2.08,0,3.11.01,5.19.02-.04,1.66-.05,2.49-.09,4.15-.24-.01-.36-.02-.6-.04Z"/>
        <path class="cls-2" d="M230.89,174.08c-2.82-.65-4.23-1.03-7-1.9-1.32-2.05-1.97-3.05-3.28-5.01.15-6.85.22-10.27.37-17.12,1.39-1.69,2.09-2.58,3.49-4.44,2.79,0,4.18,0,6.97,0,1.32,1.74,1.99,2.64,3.32,4.46-.13,7.86-.2,11.78-.33,19.64-1.41,1.82-2.12,2.69-3.53,4.36ZM229.19,153.06c-.3-.94-.45-1.41-.75-2.35-.44-.02-.66-.03-1.09-.05-.38.99-.57,1.48-.95,2.45-.11,4.99-.16,7.48-.27,12.47.3.96.45,1.45.75,2.43.44.1.66.15,1.1.24.38-.94.57-1.41.96-2.37.1-5.13.16-7.69.26-12.82Z"/>
        <path class="cls-2" d="M249.16,151c-.2.62-.3.93-.5,1.55-.03,7.54-.04,11.31-.07,18.86-1.16,1.98-1.74,2.96-2.91,4.89-2.3-.16-3.45-.28-5.74-.58-1.21-2-1.8-3-3-4.98.11-7.38.17-11.07.28-18.45-.2-.61-.29-.91-.49-1.51-.36-.01-.54-.02-.9-.03.03-1.92.05-2.89.08-4.81,3.27,0,4.91,0,8.18.01-.02,2-.03,3-.04,4.99-.36,0-.54,0-.9-.02-.2.61-.31.92-.51,1.52-.06,5.82-.09,8.73-.15,14.54.48,1.04.72,1.56,1.2,2.6.37.03.55.04.92.06.5-.98.75-1.47,1.24-2.46.04-5.87.06-8.81.1-14.68-.2-.62-.3-.93-.5-1.55-.32,0-.48,0-.8-.01.02-2,.02-3,.04-5,2.16,0,3.24,0,5.4,0,0,2.02,0,3.03-.01,5.05-.37,0-.55,0-.92,0Z"/>
        <path class="cls-2" d="M264.58,175.42c-.02-1.97-.04-2.96-.06-4.93.41-.04.61-.07,1.02-.11.19-.63.29-.94.48-1.57-.06-4.39-.09-6.59-.15-10.98-1.2,6.43-1.81,9.69-3.05,16.26,0,.61,0,.92.02,1.53-.69.08-1.04.11-1.74.17,0-.62,0-.92-.01-1.54-1.37-6.12-2.05-9.22-3.38-15.47.02,4.02.03,6.04.06,10.06.29.85.44,1.28.73,2.13.37-.02.55-.03.92-.05.01,2,.02,3.01.04,5.01-2.1.15-3.15.2-5.25.24,0-2.02,0-3.03,0-5.05.29,0,.43,0,.72-.01.24-.76.37-1.14.61-1.9-.02-6.66-.03-9.99-.05-16.65-.21-.62-.31-.93-.52-1.55-.32,0-.48,0-.8,0,0-2.02,0-3.03,0-5.05,2.75,0,4.13,0,6.88,0,0,.75.01,1.12.02,1.86.96,4.34,1.44,6.49,2.41,10.75.84-4.35,1.26-6.52,2.08-10.79,0-.73-.01-1.1-.02-1.83,2.56,0,3.83,0,6.39-.01.03,1.88.05,2.82.09,4.71-.32.01-.49.02-.81.03-.19.59-.28.89-.47,1.48.11,6.4.17,9.59.28,15.99.21.56.32.83.53,1.38.33-.06.49-.08.82-.14.03,1.88.05,2.82.09,4.71-3.12.66-4.69.93-7.85,1.33Z"/>
        <path class="cls-2" d="M278.96,172.46c-.04-1.78-.06-2.66-.1-4.44.46-.11.68-.16,1.14-.28.15-.47.23-.7.38-1.16-.13-.74-.2-1.11-.33-1.86-1.58.34-2.37.5-3.96.8-.1.82-.16,1.24-.26,2.06.17.41.26.62.43,1.02.44-.09.66-.14,1.1-.24.04,1.8.06,2.7.09,4.51-2.04.55-3.07.8-5.14,1.23-.03-1.88-.05-2.83-.09-4.71.32-.06.48-.09.8-.14,1.33-8.91,1.99-13.26,3.29-21.64-.01-.68-.02-1.02-.04-1.69,2.32,0,3.47-.01,5.79-.02.01.64.02.95.03,1.59,1.49,7.8,2.23,11.55,3.69,18.64.31-.1.47-.15.78-.24.03,1.61.05,2.41.08,4.01-3.05,1.16-4.59,1.67-7.71,2.57ZM277.86,152.3c-.44,3.28-.66,4.94-1.1,8.29.99-.14,1.48-.22,2.47-.38-.55-3.12-.82-4.71-1.37-7.92Z"/>
        <path class="cls-2" d="M297.82,149c-1.65,3.47-2.45,5.39-4.03,9.52.02,1.48.03,2.22.05,3.7.2.36.29.54.49.89.53-.21.8-.32,1.33-.54.01,1.34.02,2.01.03,3.36-3.29,1.65-4.96,2.39-8.35,3.71-.03-1.59-.05-2.38-.08-3.97.59-.19.88-.29,1.47-.49.19-.55.28-.82.47-1.36-.03-1.54-.04-2.31-.07-3.84-1.76-3.68-2.66-5.7-4.47-9.98-.24.01-.36.02-.6.04-.04-1.66-.05-2.49-.09-4.15,3.35-.01,5.02-.02,8.37-.04l.05,3.6c-.55.04-.83.06-1.38.11,0,.28,0,.41.01.69.74,1.6,1.11,2.37,1.84,3.84.68-1.73,1.03-2.56,1.72-4.17,0-.26,0-.39,0-.64-.52.04-.77.06-1.29.1-.02-1.41-.03-2.12-.05-3.53,2.07-.01,3.11-.02,5.19-.03,0,1.25,0,1.87,0,3.12-.24.02-.35.03-.59.05Z"/>
      </g>
      <g>
        <path class="cls-2" d="M230,143.73c-1.96,0-2.94,0-4.9,0-.96-1.06-1.44-1.56-2.39-2.48,0-4.36,0-6.54,0-10.91.9-1.54,1.35-2.34,2.25-4,1.86-.93,2.81-1.35,4.72-2.12.95.82,1.43,1.27,2.4,2.23.1,5.49.15,8.23.25,13.72-.93,1.48-1.39,2.2-2.32,3.56ZM228.32,129.85c-.23-.56-.34-.83-.56-1.37-.3.11-.45.16-.74.27-.24.76-.35,1.14-.59,1.89.04,3.32.06,4.97.1,8.29.23.57.34.86.57,1.45.31-.02.46-.04.76-.06.24-.7.36-1.06.6-1.78-.05-3.47-.08-5.21-.13-8.68Z"/>
        <path class="cls-2" d="M242.22,124.65c-.13.49-.2.73-.34,1.22.1,7.05.15,10.57.25,17.62-1.21,0-1.81,0-3.02,0,0-.45-.01-.68-.02-1.13-1.42-4.36-2.14-6.47-3.56-10.46.05,2.54.07,3.81.12,6.34.24.68.35,1.02.59,1.71.31-.02.47-.02.78-.04.03,1.43.04,2.15.06,3.58-1.54,0-2.32,0-3.86.01l-.06-3.38c.17,0,.25-.01.42-.02.19-.6.28-.9.47-1.5-.08-4.37-.12-6.55-.2-10.91-.18-.47-.26-.71-.44-1.17-.2.05-.29.08-.49.14-.02-1.35-.04-2.03-.06-3.38,1.8-.61,2.71-.88,4.55-1.35,0,.54.01.81.02,1.35,1.19,3.33,1.79,5.07,2.98,8.66-.03-2.22-.05-3.34-.09-5.56-.18-.53-.27-.79-.45-1.31-.31.06-.47.09-.78.15-.02-1.47-.04-2.2-.06-3.67,1.45-.33,2.18-.48,3.64-.73.02,1.52.03,2.28.05,3.79-.2.03-.3.04-.5.07Z"/>
        <path class="cls-2" d="M243.32,143.48c-.02-1.52-.03-2.28-.05-3.8.22,0,.34,0,.56-.02.14-.48.21-.71.34-1.19-.06-5.15-.09-7.73-.15-12.88-.15-.46-.23-.68-.38-1.13-.23.03-.34.04-.57.08-.02-1.52-.03-2.28-.05-3.8,3.53-.58,5.31-.75,8.87-.84,0,3.64.01,5.46.02,9.1-.52,0-.77.01-1.29.03,0-.79,0-1.19,0-1.99-.58-1.25-.87-1.87-1.45-3.1-.66.04-1,.06-1.66.11.02,2.04.02,3.06.04,5.1.17-.01.26-.01.43-.02.22-1.28.33-1.93.56-3.21.43-.03.65-.04,1.08-.06.02,4.4.03,6.61.06,11.01-.42,0-.64.01-1.06.02-.24-1.27-.36-1.9-.6-3.16-.17,0-.26,0-.43.02.02,2.33.03,3.5.05,5.83.51,0,.76-.01,1.27-.02.72-1.77,1.09-2.66,1.82-4.43,0-.88,0-1.32,0-2.21.51-.01.77-.01,1.28-.02,0,4.23.01,6.35.02,10.58-3.48,0-5.22,0-8.7,0Z"/>
        <path class="cls-2" d="M262.82,143.48c-3,0-4.5,0-7.5,0,0-1.58,0-2.37,0-3.94.22,0,.34,0,.56,0,.15-.48.22-.73.36-1.21.02-5.3.03-7.95.05-13.25-.14-.49-.22-.74-.36-1.23-.23,0-.34-.01-.57-.02,0-1.58,0-2.37,0-3.94,3.1.09,4.64.23,7.72.68,1.02,1.59,1.52,2.38,2.53,3.95-.09,5.9-.13,8.85-.21,14.75-1.04,1.65-1.56,2.49-2.59,4.21ZM261.73,126.89c-.27-.99-.41-1.49-.68-2.49-.43-.04-.65-.06-1.08-.1-.05,6.03-.08,9.04-.13,15.06.39,0,.59.01.98.02.32-1.07.48-1.6.8-2.65.04-3.94.06-5.91.1-9.85Z"/>
        <path class="cls-2" d="M270.26,143.5c.03-1.43.04-2.14.06-3.57.32.02.48.02.8.04.12-.34.18-.51.3-.84-.07-.62-.1-.93-.17-1.56-1.11-.09-1.67-.14-2.78-.21-.1.63-.14.95-.24,1.59.11.36.16.54.27.9.31.01.46.02.77.03-.03,1.44-.04,2.17-.06,3.61-1.43,0-2.15,0-3.58,0,.02-1.5.03-2.25.06-3.75.22,0,.34.01.56.02,1.15-6.83,1.73-10.17,2.89-16.62,0-.54.01-.81.02-1.36,1.64.41,2.46.64,4.08,1.16,0,.51-.01.77-.02,1.29.8,6.61,1.2,9.82,2.02,15.98.22.01.33.02.56.04-.02,1.31-.03,1.97-.06,3.28-2.19,0-3.28-.01-5.47-.02ZM270.08,127.17c-.41,2.53-.61,3.81-1.01,6.39.7.08,1.05.12,1.74.22-.29-2.62-.44-3.94-.73-6.61Z"/>
        <path class="cls-2" d="M283.95,130.17c-1.12,2.32-1.7,3.63-2.89,6.47-.01,1.23-.02,1.85-.03,3.08.13.37.2.56.33.93.39.03.58.05.97.08,0,1.13-.01,1.69-.02,2.82-2.44-.01-3.66-.02-6.1-.03.02-1.3.03-1.95.06-3.25.42.03.63.04,1.05.07.15-.38.22-.57.37-.95.02-1.26.03-1.89.05-3.16-1.14-3.56-1.7-5.45-2.83-9.37-.17-.05-.25-.07-.42-.12.02-1.35.04-2.02.06-3.37,2.33.8,3.48,1.26,5.74,2.29-.01,1.19-.02,1.79-.04,2.99-.38-.14-.57-.21-.95-.35,0,.23,0,.34,0,.57.47,1.54.71,2.3,1.18,3.76.51-1.19.76-1.77,1.26-2.87,0-.21,0-.32,0-.54-.35-.14-.53-.21-.88-.35.01-1.18.02-1.76.03-2.94,1.4.65,2.09,1,3.45,1.74v2.65c-.16-.07-.24-.11-.4-.18Z"/>
      </g>
    </g>
    <g>
      <path class="cls-2" d="M15.15,268.92H5.92l-4.62-5.44v-23.94l5.24-6.2h9.23l4.62,5.44v23.94l-5.24,6.2ZM12.84,242.8l-1.22-2.94h-1.55l-1.22,2.94v16.65l1.22,2.94h1.55l1.22-2.94v-16.65Z"/>
      <path class="cls-2" d="M43.48,268.54l-3.07-2.88v-9.09l-1.25-1.47h-1.85v6.53l.46,1.09h1.38v5.82h-11.38v-5.82h1.22l.79-1.8v-19.59l-.79-1.8h-1.22v-5.82h16.16l3.85,2.88v10.88l-3.69,3.26,4.15,3.27v6.91l1.06,1.8h1.08v5.82h-6.92ZM40.41,241.72l-1.25-1.47h-1.85v8.33h1.85l1.25-1.41v-5.44Z"/>
      <path class="cls-2" d="M50.25,268.54v-5.82h1.22l.79-1.8v-19.59l-.79-1.8h-1.22v-5.82h11.7v5.82h-1.25l-.76,1.8v19.59l.76,1.8h1.25v5.82h-11.7Z"/>
      <path class="cls-2" d="M78.57,268.54l-3.07-2.88v-9.09l-1.25-1.47h-1.85v6.53l.46,1.09h1.38v5.82h-11.38v-5.82h1.22l.79-1.8v-19.59l-.79-1.8h-1.22v-5.82h16.16l3.85,2.88v10.88l-3.69,3.26,4.15,3.27v6.91l1.06,1.8h1.08v5.82h-6.92ZM75.5,241.72l-1.25-1.47h-1.85v8.33h1.85l1.25-1.41v-5.44Z"/>
    </g>
    <g>
      <path class="cls-2" d="M21.04,352.96v-4.09h1.09l.54-1.26v-9.17l-3.45,13.26v1.26h-1.83v-1.26l-3.47-12.76v8.17l.76,1.76h.97v4.09h-5.51v-4.09h.76l.65-1.53v-13.49l-.55-1.26h-.86v-4.09h7.46v1.53l2.48,8.9,2.38-8.9v-1.53h6.92v4.09h-.88l-.53,1.26v13.75l.53,1.26h.88v4.09h-8.33Z"/>
      <path class="cls-2" d="M36.39,352.96v-4.09h1.23l.44-.99-.31-1.8h-4.28l-.32,1.8.44.99h1.18v4.09h-5.51v-4.09h.86l4-18.83v-1.53h6.28v1.53l3.57,18.83h.86v4.09h-8.43ZM35.68,334.35l-1.38,7.41h2.68l-1.3-7.41Z"/>
      <path class="cls-2" d="M56.26,352.96h-11.56v-4.09h.86l.55-1.26v-13.75l-.55-1.26h-.86v-4.09h11.56l3.89,3.82v16.04l-3.89,4.58ZM54.32,335.38l-1.07-2.56h-1.62v15.82h1.51l1.18-2.83v-10.43Z"/>
      <path class="cls-2" d="M61.35,352.96v-4.09h.86l.55-1.26v-13.75l-.55-1.26h-.86v-4.09h13.3v9.44h-1.95v-2.06l-2.16-3.28h-2.5v5.35h.65l.88-3.32h1.62v11.46h-1.62l-.88-3.32h-.65v6.11h1.95l2.82-4.58v-2.29h1.95v10.96h-13.41Z"/>
      <path class="cls-2" d="M3.75,382.17v-4.09h.86l.55-1.26v-13.75l-.55-1.26h-.86v-4.09h8.22v4.09h-.88l-.54,1.26v13.75l.54,1.26h.88v4.09H3.75Z"/>
      <path class="cls-2" d="M26.89,361.81l-.54,1.26v19.1h-4.65v-1.26l-5.19-12.22v7.37l.86,2.02h1.2v4.09h-5.95v-4.09h.65l.76-1.76v-12.99l-.65-1.53h-.76v-4.09h7.02v1.53l4.33,10.2v-6.11l-.65-1.53h-1.18v-4.09h5.51v4.09h-.76Z"/>
      <path class="cls-2" d="M46.13,373v9.17h-2.17v-2.02l-2.37,2.29h-5.09l-3.89-4.58v-15.55l4.12-4.85h5.12l1.9,1.53v-1.26h2.06v9.67h-2.17v-1.26l-2.59-4.09h-1.3l-1.3,3.06v10.47l.97,2.29h1.41l.32-.76v-4.09h-1.51v-4.32h7.56v4.32h-1.07Z"/>
      <path class="cls-2" d="M61.25,361.81l-4.54,10.7v4.32l.53,1.26h1.51v4.09h-9.4v-4.09h1.62l.55-1.26v-4.09l-4.65-10.93h-.65v-4.09h9.08v4.09h-1.51v.76l1.95,4.58,1.95-4.58v-.76h-1.41v-4.09h5.63v4.09h-.65Z"/>
      <path class="cls-2" d="M73.34,382.17v-4.09h1.09l.54-1.26v-9.17l-3.45,13.26v1.26h-1.83v-1.26l-3.47-12.76v8.17l.76,1.76h.97v4.09h-5.51v-4.09h.76l.65-1.53v-13.49l-.55-1.26h-.86v-4.09h7.46v1.53l2.48,8.9,2.38-8.9v-1.53h6.92v4.09h-.88l-.53,1.26v13.75l.53,1.26h.88v4.09h-8.33Z"/>
    </g>
    <g>
      <path d="M342.88,114.32c.06.27.13.53.14.83.02.63-.18,1.35-.33,1.96-.23.99-.48,2.02-1.04,2.88-.39.59-1.66,1.47-1.73,2.17-.04.38.43.78.63,1.08.26.4.51.84.59,1.32.25,1.45.03,3.29.21,4.82.38,3.11,1.6,6.11,1.86,9.46.13,1.69-.32,3.39-.09,5.08.11.85.57,1.03.97,1.74.37.65.51,1.43.54,2.16.09,2.32-.83,4.64-2.4,6.34-.65.7-1.78,1.17-1.95,2.15-.21,1.24.28,2.62.09,3.91-.09.57-.57,1.23-.74,1.78-.23.76-.32,1.71-.46,2.49.41.21.89.93,1.22,1.09.19.09.48-.02.71.06.87.28,1.71.64,2.48,1.15,1.65,1.1,2.37,2.67,3.96,4.07,1.74,1.53,3.27,3.42,5.48,4.27.68.26,2.24.46,2.64.99.3.39-.6,2.11-.63,2.67-.06,1.59.32,3.31-.29,4.83-.37.92-1.22,1.78-2.14,2.14s-2.3-.03-3.15-.46c.24-.44.36-.9.85-1.04s1.06.04,1.4-.44c.58-.83-.72-2.48-.79-3.42-1.51-3.28-3.4-4.45-6.18-6.43-1.17-.83-2.5-1.05-3.88-1.78-.79-.42-1.5-1.1-2.17-1.48-.75-.43-1.82-.51-2.38-.89-.23-.16-.26-.43-.44-.55-.6-.39-2.38-1.22-2.63-1.73-.16-.34-.13-.83-.32-1.25-.15-.34-.46-.55-.58-.83-.28-.65-.41-1.52-.72-2.11-.37-.72-1.35.82-1.29.89.13.02.3.05.38.17.6.88.79,1.78.79,2.83,0,.25,0,.49,0,.74,0,.12-.02.3.01.42.03.1.12.18.17.27.23.42.24.96.02,1.39-.09.18-.22.33-.32.51-.17.31-.17.75-.16,1.1.02.4.07.82.16,1.21.23,1.02.29,2.11.43,3.15.13.95.32,1.8.57,2.71.37,1.38.93,3.01.76,4.46-.04.32-.21.62-.29.94-.12.17-1.94.36-2.3.38-1.25.08-3.28-.3-4.39-.12-.82.13-1.93,1.01-2.75,1.18-.55.12-1.28.27-1.74-.16-.36-.34-.37-.86-.33-1.32.65.08.86-.44,1.4-.63.41-.14.85-.09,1.4-.32.97-.41,2.94-1.45,3.73-2.09.22-.18.79-1.38.84-1.67.44-2.31-1.69-6.43-2.31-8.79-.43-1.64-.6-3.12-1.04-4.78-.29-1.1-.86-3.1-.69-4.16.1-.65.65-.96.74-1.3.16-.55.03-1,.32-1.73,1.41-3.51,3.87-6.51,6.14-9.43.49-.64.63-1.49,1.04-2.17s.97-1.16.74-2.06c-.16-.61-.61-1.11-1.14-1.45-.75-.48-1.78-.86-2.63-1.12-.26-.08-.53-.16-.76-.32-.56-.39-1.01-1.15-1.63-.43-.5.58-.49,1.36-.84,2-.93,1.7-2.83,2.65-4.27,3.75-.36.28-.57.76-.83.95-.12.1-1.77.89-1.89.91-.99.17-.93-.62-1.31-.99-1.45-1.43-2.42-1.94-3.48-3.91-.56-1.03-.76-2.4-1.32-3.4-.15-.26-.5-.42-.61-.65-.43-.9-.65-2.84-.57-3.85.04-.46.88-3.49,1.11-3.63.58-.19,1.26.28,1.69.37.23.05.51-.17.67-.06.25.18.07.64.19.84.1.18.89.2.52.97s-.19.8-.35,1.22-.67.5-.84.74c-.12.17-.24.91-.5,1-.34.11-.64-.26-.9-.04.45.65.74,1.42,1.34,1.97.64.59,2.8,2.03,3.58,2.4.19.09.37.16.58.11-.16-.37.31-.5.32-.57.06-.39-.28-.87-.09-1.63.3-1.18,1.53-1.61,1.74-2.04.41-.86.27-1.82.76-2.7.56-1,1.2-1.83,2.32-2.24.67-.25,1.61-.34,1.96-1.07.24-.5.12-1.21-.41-1.48-.81-.41-.94.39-1.46.73-.63.41-1.25.08-1.82-.29-.56-.36-1.34-.42-1.85-.81-.28-.21-.25-.79-.42-.92-.18-.15-.82-.1-1.15-.34-.39-.29-.83-1.42-1.34-1.66-.71-.33-1.41.75-1.54-.96-.03-.45.31-3.35.47-3.51.07-.06.41.02.61-.1.17-.1.25-.46.48-.63.31-.22.69-.17.93-.32.38-.25.98-.89,1.37-1.15.27-.19,1.06-.48,1.37-.45.1.01,1.77.57,1.93.64,1.11.51,2.68,2.43,3.82,3.16.76.48,3.47.01,3.94-.8.25-.43.12-1.33.27-1.84.42-1.47,1.33-2.36,2.34-3.43.56-.6.51-1.53,1.17-2.1.34-.3,1.25-.56,1.27-.63.15-.53-.57-1.16-1.01-1.42-.56-.32-1.22-.49-1.84-.64-1.12-.27-2.35-.28-3.45.1.34.88,0,1.56-.42,2.32-.1.18-.36.22-.41.39-.09.31.19.63-.17.92-.35.34-.71-.07-1.03-.11-.28-.03-.47.1-.78,0-.09-.03-1.23-1.06-1.28-1.13-.48-.78.65-1.83,1.19-2.41.67-.74,1.83-1.88,2.84-2.03.41-.06.85.05,1.25-.01,2.1-.32,4.16-.91,6.29-1,1.19-.05,5.31.12,5.47,1.79.04.43-.14.85-.25,1.27-.1.38-.05.7.03,1.02Z"/>
      <path d="M368.8,114.32c-.06.27-.13.53-.14.83-.02.63.18,1.35.33,1.96.23.99.48,2.02,1.04,2.88.39.59,1.66,1.47,1.73,2.17.04.38-.43.78-.63,1.08-.26.4-.51.84-.59,1.32-.25,1.45-.03,3.29-.21,4.82-.38,3.11-1.6,6.11-1.86,9.46-.13,1.69.32,3.39.09,5.08-.11.85-.57,1.03-.97,1.74-.37.65-.51,1.43-.54,2.16-.09,2.32.83,4.64,2.4,6.34.65.7,1.78,1.17,1.95,2.15.21,1.24-.28,2.62-.09,3.91.09.57.57,1.23.74,1.78.23.76.32,1.71.46,2.49-.41.21-.89.93-1.22,1.09-.19.09-.48-.02-.71.06-.87.28-1.71.64-2.48,1.15-1.65,1.1-2.37,2.67-3.96,4.07-1.74,1.53-3.27,3.42-5.48,4.27-.68.26-2.24.46-2.64.99-.3.39.6,2.11.63,2.67.06,1.59-.32,3.31.29,4.83.37.92,1.22,1.78,2.14,2.14s2.3-.03,3.15-.46c-.24-.44-.36-.9-.85-1.04s-1.06.04-1.4-.44c-.58-.83.72-2.48.79-3.42,1.51-3.28,3.4-4.45,6.18-6.43,1.17-.83,2.5-1.05,3.88-1.78.79-.42,1.5-1.1,2.17-1.48.75-.43,1.82-.51,2.38-.89.23-.16.26-.43.44-.55.6-.39,2.38-1.22,2.63-1.73.16-.34.13-.83.32-1.25.15-.34.46-.55.58-.83.28-.65.41-1.52.72-2.11.37-.72,1.35.82,1.29.89-.13.02-.3.05-.38.17-.6.88-.79,1.78-.79,2.83,0,.25,0,.49,0,.74,0,.12.02.3-.01.42-.03.1-.12.18-.17.27-.23.42-.24.96-.02,1.39.09.18.22.33.32.51.17.31.17.75.16,1.1-.02.4-.07.82-.16,1.21-.23,1.02-.29,2.11-.43,3.15-.13.95-.32,1.8-.57,2.71-.37,1.38-.93,3.01-.76,4.46.04.32.21.62.29.94.12.17,1.94.36,2.3.38,1.25.08,3.28-.3,4.39-.12.82.13,1.93,1.01,2.75,1.18.55.12,1.28.27,1.74-.16.36-.34.37-.86.33-1.32-.65.08-.86-.44-1.4-.63-.41-.14-.85-.09-1.4-.32-.97-.41-2.94-1.45-3.73-2.09-.22-.18-.79-1.38-.84-1.67-.44-2.31,1.69-6.43,2.31-8.79.43-1.64.6-3.12,1.04-4.78.29-1.1.86-3.1.69-4.16-.1-.65-.65-.96-.74-1.3-.16-.55-.03-1-.32-1.73-1.41-3.51-3.87-6.51-6.14-9.43-.49-.64-.63-1.49-1.04-2.17s-.97-1.16-.74-2.06c.16-.61.61-1.11,1.14-1.45.75-.48,1.78-.86,2.63-1.12.26-.08.53-.16.76-.32.56-.39,1.01-1.15,1.63-.43.5.58.49,1.36.84,2,.93,1.7,2.83,2.65,4.27,3.75.36.28.57.76.83.95.12.1,1.77.89,1.89.91.99.17.93-.62,1.31-.99,1.45-1.43,2.42-1.94,3.48-3.91.56-1.03.76-2.4,1.32-3.4.15-.26.5-.42.61-.65.43-.9.65-2.84.57-3.85-.04-.46-.88-3.49-1.11-3.63-.58-.19-1.26.28-1.69.37-.23.05-.51-.17-.67-.06-.25.18-.07.64-.19.84-.1.18-.89.2-.52.97s.19.8.35,1.22.67.5.84.74c.12.17.24.91.5,1,.34.11.64-.26.9-.04-.45.65-.74,1.42-1.34,1.97-.64.59-2.8,2.03-3.58,2.4-.19.09-.37.16-.58.11.16-.37-.31-.5-.32-.57-.06-.39.28-.87.09-1.63-.3-1.18-1.53-1.61-1.74-2.04-.41-.86-.27-1.82-.76-2.7-.56-1-1.2-1.83-2.32-2.24-.67-.25-1.61-.34-1.96-1.07-.24-.5-.12-1.21.41-1.48.81-.41.94.39,1.46.73.63.41,1.25.08,1.82-.29.56-.36,1.34-.42,1.85-.81.28-.21.25-.79.42-.92.18-.15.82-.1,1.15-.34.39-.29.83-1.42,1.34-1.66.71-.33,1.41.75,1.54-.96.03-.45-.31-3.35-.47-3.51-.07-.06-.41.02-.61-.1-.17-.1-.25-.46-.48-.63-.31-.22-.69-.17-.93-.32-.38-.25-.98-.89-1.37-1.15-.27-.19-1.06-.48-1.37-.45-.1.01-1.77.57-1.93.64-1.11.51-2.68,2.43-3.82,3.16-.76.48-3.47.01-3.94-.8-.25-.43-.12-1.33-.27-1.84-.42-1.47-1.33-2.36-2.34-3.43-.56-.6-.51-1.53-1.17-2.1-.34-.3-1.25-.56-1.27-.63-.15-.53.57-1.16,1.01-1.42.56-.32,1.22-.49,1.84-.64,1.12-.27,2.35-.28,3.45.1-.34.88,0,1.56.42,2.32.1.18.36.22.41.39.09.31-.19.63.17.92.35.34.71-.07,1.03-.11.28-.03.47.1.78,0,.09-.03,1.23-1.06,1.28-1.13.48-.78-.65-1.83-1.19-2.41-.67-.74-1.83-1.88-2.84-2.03-.41-.06-.85.05-1.25-.01-2.1-.32-4.16-.91-6.29-1-1.19-.05-5.31.12-5.47,1.79-.04.43.14.85.25,1.27.1.38.05.7-.03,1.02Z"/>
    </g>
    <g>
      <g>
        <path class="cls-2" d="M116.12,230.85c-.29-.49-.44-.73-.73-1.22-1.26-.21-1.9-.3-3.19-.42-.68.64-1.02.97-1.68,1.65.94,1.32,1.41,1.98,2.35,3.3.16-.17.24-.25.41-.41-.23-1.05-.34-1.59-.55-2.65.52-.5.78-.75,1.31-1.22,1.71,2.71,2.57,4.07,4.29,6.78-.46.42-.69.63-1.14,1.07-.78-.5-1.18-.74-1.98-1.21-.15.15-.23.23-.38.39.74,1.04,1.1,1.55,1.84,2.59.28.1.42.16.69.27.37-.37.56-.56.94-.92.63.95.95,1.43,1.58,2.38-2.23,2.12-3.29,3.3-5.27,5.91-.75-.82-1.12-1.22-1.87-2.04.21-.27.31-.41.52-.68-.09-.43-.14-.64-.22-1.08-2.46-2.83-3.69-4.24-6.15-7.06-.39-.06-.58-.08-.98-.13-.26.33-.38.49-.64.82-.75-.82-1.12-1.22-1.87-2.04,4.02-5.28,6.25-7.55,10.98-11.34,1.33,2.38,2,3.58,3.33,5.96-.63.51-.95.77-1.57,1.31Z"/>
        <path class="cls-2" d="M126.28,236.13c-.48-1.07-.73-1.6-1.21-2.66.37-.24.55-.36.92-.58.02-.34.03-.52.05-.86-.3-.42-.44-.63-.74-1.04-1.34.82-1.99,1.26-3.28,2.21.14.53.2.79.34,1.31.26.15.39.23.64.39.34-.25.52-.38.87-.62.51,1.05.77,1.57,1.28,2.62-1.53,1.07-2.28,1.65-3.74,2.92-.6-.98-.89-1.47-1.49-2.46.24-.21.36-.31.6-.52-1.55-5.53-2.18-8.39-3.12-14.23-.19-.39-.29-.58-.49-.97,2.33-1.67,3.52-2.41,5.96-3.74.16.41.24.62.39,1.03,3.3,4.35,4.82,6.63,7.6,11.35.27-.12.4-.18.67-.3.35,1.14.52,1.71.86,2.85-2.51,1.09-3.74,1.74-6.12,3.29ZM120.14,224.41c.41,2.25.64,3.36,1.14,5.56.86-.61,1.29-.9,2.17-1.46-1.29-1.67-1.95-2.5-3.3-4.11Z"/>
        <path class="cls-2" d="M132.31,232.87c-.35-1.14-.52-1.71-.87-2.85.27-.12.41-.18.68-.29.07-.43.11-.64.19-1.06-1.09-3.87-1.64-5.8-2.73-9.67-.31-.27-.46-.4-.78-.67-.33.14-.49.21-.82.35-.35-1.14-.52-1.71-.87-2.85,3.27-1.43,4.95-1.99,8.34-2.83.21,1.19.31,1.78.52,2.97-.35.09-.52.13-.86.22-.14.42-.21.63-.35,1.05.78,3.97,1.17,5.96,1.95,9.93.25.32.37.47.61.79.28-.08.43-.11.71-.18.21,1.19.31,1.78.52,2.97-2.53.63-3.78,1.05-6.23,2.11Z"/>
        <path class="cls-2" d="M139.03,230.64c-.2-1.19-.29-1.79-.49-2.98.28-.07.42-.1.7-.16.12-.41.19-.61.32-1.02-.57-4.02-.86-6.03-1.44-10.06-.27-.33-.4-.49-.68-.81-.34.07-.51.11-.85.19-.2-1.19-.29-1.79-.49-2.98,3.48-.81,5.24-1.06,8.77-1.26.05,1.21.07,1.82.12,3.03-.44.02-.65.04-1.09.07-.19.39-.29.59-.48.98.28,4.44.42,6.66.7,11.1.39-.03.59-.05.98-.07.87-1.42,1.33-2.12,2.32-3.48,0-.75,0-1.12,0-1.87.74,0,1.11,0,1.85.03-.09,3.32-.13,4.98-.22,8.3-4.02-.15-6.05.05-10.01.97Z"/>
        <path class="cls-2" d="M163.27,217.12c-.29.29-.44.44-.73.73-1,4.37-1.5,6.56-2.5,10.94-1.24.86-1.83,1.31-2.98,2.25-1.85-.48-2.79-.66-4.66-.89-.9-1.26-1.39-1.87-2.4-3.07.19-4.61.29-6.91.48-11.52-.2-.39-.3-.58-.51-.96-.39-.02-.59-.03-.98-.04.02-1.21.04-1.82.06-3.03,3.72.1,5.58.33,9.24,1.12-.18,1.19-.27,1.79-.45,2.98-.39-.08-.58-.12-.96-.2-.26.33-.39.49-.65.82-.45,3.51-.68,5.26-1.13,8.77.36.69.54,1.03.88,1.72.32.07.48.1.8.18.53-.5.79-.75,1.34-1.23.63-3.47.95-5.2,1.58-8.67-.15-.42-.22-.63-.38-1.05-.34-.08-.51-.12-.85-.2.19-1.19.29-1.79.48-2.98,2.42.55,3.62.9,5.98,1.76-.29,1.16-.44,1.74-.73,2.9-.38-.14-.58-.2-.96-.33Z"/>
        <path class="cls-2" d="M169.03,236.13c-.37-.92-.56-1.38-.98-2.3.7-1.7,1.05-2.55,1.76-4.24-.17-.44-.25-.66-.43-1.1-.42-.24-.64-.36-1.06-.59-.46,1.24-.7,1.86-1.16,3.11.02.26.03.39.06.65.3.16.45.24.74.41-.44,1.1-.65,1.64-1.09,2.74-2.3-1.31-3.49-1.86-5.9-2.76.3-1.16.45-1.74.75-2.9.27.1.41.15.68.26.27-.29.41-.43.69-.71,1.1-3.86,1.64-5.8,2.74-9.66-.11-.44-.16-.66-.28-1.1-.33-.13-.5-.19-.83-.32.3-1.16.45-1.74.75-2.9,4.58,1.7,6.83,2.83,11.1,5.65.78,1.2,1.15,1.81,1.86,3.04-1,1.93-1.49,2.9-2.49,4.83-1.16-.06-1.73-.06-2.86-.03.69,1.23,1.01,1.86,1.62,3.12-.64,1.22-.96,1.83-1.6,3.05.05.48.08.72.12,1.2.22.17.33.25.55.43-.56,1.01-.84,1.52-1.4,2.53-1.31-1.05-1.99-1.53-3.36-2.42ZM172.68,222.65c-.2-.46-.31-.69-.52-1.15-.48-.27-.72-.4-1.2-.66-.59,1.58-.89,2.38-1.48,3.96.45.24.67.36,1.12.62.41-.09.61-.14,1.02-.22.42-1.02.63-1.52,1.05-2.54Z"/>
        <path class="cls-2" d="M172.31,238.49c.56-1.01.84-1.52,1.4-2.53.25.19.37.29.61.49.33-.18.5-.27.84-.44,1.95-3.35,2.93-5.02,4.88-8.37,0-.46-.01-.69-.02-1.16-.3-.24-.44-.36-.74-.6.56-1.01.84-1.52,1.4-2.53,4.82,3.82,7.1,6.11,11.19,11.46-1.73,1.89-2.59,2.83-4.32,4.72-.54-.71-.81-1.05-1.37-1.73.36-.43.55-.64.91-1.07-.05-1.45-.09-2.18-.21-3.65-.78-.88-1.18-1.3-1.98-2.13-.86,1.21-1.29,1.81-2.15,3.02.2.2.3.3.49.51.81-.47,1.21-.69,2.04-1.13.5.54.75.82,1.24,1.39-1.97,2.45-2.95,3.68-4.92,6.13-.43-.49-.65-.74-1.08-1.21.32-.99.47-1.49.76-2.49-.19-.19-.28-.29-.46-.48-.98,1.38-1.48,2.07-2.46,3.45.52.53.77.8,1.28,1.36,1.5-.2,2.27-.26,3.83-.29.41-.48.61-.71,1.02-1.19.53.65.79.98,1.3,1.65-2.01,2.19-3.02,3.28-5.03,5.47-3.08-4.04-4.79-5.77-8.42-8.65Z"/>
      </g>
      <g>
        <path class="cls-2" d="M124.78,248.05c-.02-.75-.03-1.12-.06-1.87-.63-1.12-.95-1.62-1.56-2.52-.53.28-.79.43-1.31.73.04,1.86.07,2.75.11,4.52.14-.03.21-.05.35-.08.23-1.09.34-1.67.56-2.87.42-.17.63-.26,1.05-.42.12,4.05.18,6.01.29,10.07-.43-.1-.65-.15-1.08-.26-.29-1.15-.43-1.7-.72-2.74-.14,0-.21-.01-.35-.02.04,1.39.05,2.09.09,3.53.12.35.19.53.31.89.37.13.56.2.94.33.04,1.39.06,2.1.09,3.55-2.35-1.19-3.53-1.84-5.83-3.26v-2.49c.22.09.34.14.56.23.14-.24.21-.36.36-.6-.03-3.22-.04-4.3-.06-7.52-.14-.21-.2-.32-.34-.52-.21.14-.31.22-.52.36v-2.49c3.06-2.96,4.7-4.22,8.12-6.31.12,3.76.17,5.67.29,9.49-.52.1-.77.16-1.29.27Z"/>
        <path class="cls-2" d="M134.86,265.76c-2.02-.61-3.04-.97-5.1-1.79-1.05-1.99-1.58-3-2.63-4.87-.21-6.77-.32-10.35-.53-17.14.92-2.2,1.38-3.38,2.31-5.7,2.03-1.04,3.07-1.48,5.17-2.22,1.07,1.34,1.61,2.1,2.68,3.81.17,8.64.25,14.51.42,23.26-.94,2.08-1.4,3-2.33,4.65ZM132.74,242.49c-.26-.97-.39-1.44-.66-2.36-.32.1-.49.16-.81.27-.23,1.17-.35,1.75-.58,2.91.16,5.42.23,8.35.39,13.75.26,1.02.39,1.53.65,2.56.32.08.48.12.8.2.23-1.03.35-1.57.58-2.67-.15-5.74-.23-8.92-.38-14.65Z"/>
        <path class="cls-2" d="M146.03,267.62c-.56-1.05-.85-1.6-1.44-2.73-.08-3.41-.11-5.31-.19-9.17-.25-.63-.37-.95-.63-1.59-.35-.01-.53-.02-.89-.03.06,2.77.1,4.15.16,6.75.1.44.15.66.25,1.1.26.02.4.04.66.06.05,2.3.08,3.4.13,5.43-2.11-.26-3.21-.47-5.81-1.07-.05-1.89-.07-2.92-.11-5.08.27.04.41.06.68.11.16-.65.23-.98.38-1.65-.18-7.58-.27-12.23-.45-19.81-.18-.68-.26-1.01-.44-1.66-.25.04-.37.06-.62.1-.05-2.16-.07-3.19-.11-5.08,3.22-.81,4.85-1.05,8.12-1.2.8.98,1.19,1.51,1.97,2.6.03,4.13.05,6.48.08,11.2-.69,1.42-1.04,2.13-1.72,3.56.81,1.42,1.2,2.14,1.98,3.56.02,3,.03,4.5.04,7.34.19.74.29,1.1.48,1.82.19,0,.29,0,.48-.01,0,2.33,0,3.45,0,5.5-1.19.05-1.78.04-3-.03ZM144.09,239.85c-.26-.59-.39-.88-.65-1.45-.37.02-.55.04-.92.07.08,3.3.12,5.08.2,8.64.36,0,.54,0,.9-.01.23-.61.35-.92.58-1.53-.05-2.33-.07-3.49-.11-5.72Z"/>
        <path class="cls-2" d="M155.66,267.01c-1.56.36-2.28.5-3.68.7-.96-2.1-1.43-3.32-2.41-5.91,0-8.73.01-14.3.02-23.13,1.21-2.92,1.84-4.31,3.12-6.65,1.34.17,2,.28,3.33.56.54.83.8,1.26,1.34,2.13.01-.62.02-.92.03-1.5.58.14.87.22,1.44.38-.12,5.1-.17,8.41-.29,14.77-.68-.03-1.05-.03-1.76-.04.02-.89.02-1.34.04-2.23-.54-2.82-.8-4.25-1.34-6.98-.34-.04-.5-.06-.84-.09-.36,1.52-.54,2.32-.9,3.94-.08,5.25-.12,8.11-.2,13.37.44,1.64.66,2.44,1.1,3.97.3-.04.45-.05.76-.09.5-2.17.75-3.3,1.26-5.53.02-1.04.03-1.56.05-2.61.75-.03,1.14-.04,1.84-.06-.07,3.74-.1,5.63-.17,9.05-1.03,2.46-1.65,3.68-2.75,5.96Z"/>
        <path class="cls-2" d="M159.15,265.81c.05-1.85.07-2.85.12-4.94.23-.05.35-.08.58-.13.16-.67.25-1.01.41-1.69.16-7.07.25-11.31.41-18.38-.14-.68-.21-1.03-.34-1.7-.24-.06-.36-.09-.6-.15.05-2.09.07-3.09.12-4.94,3.73,1.16,5.56,1.97,9.06,4.03-.1,3.65-.15,5.6-.25,9.48-.52-.11-.78-.17-1.31-.27.02-.9.04-1.35.06-2.24-.54-1.58-.81-2.41-1.36-4.09-.68-.26-1.01-.38-1.7-.62-.07,2.47-.1,3.77-.17,6.38.18.03.27.04.44.07.28-1.56.42-2.32.7-3.78.44.13.66.2,1.1.34-.14,5.09-.21,7.84-.35,12.96-.44.07-.67.11-1.11.18-.2-1.5-.3-2.28-.5-3.88-.18,0-.27,0-.44.02-.08,2.99-.12,4.49-.2,7.32.53-.14.8-.2,1.34-.34.83-2.25,1.25-3.36,2.07-5.41.03-.99.04-1.49.07-2.49.53,0,.79.01,1.32.03-.12,4.51-.17,6.79-.29,11.03-3.7,1.47-5.6,2.19-9.18,3.21Z"/>
        <path class="cls-2" d="M175.41,259.84c-1.33.59-2.01.89-3.39,1.48-.49-.32-.73-.48-1.22-.85-.01.46-.02.68-.03,1.14-.47.2-.71.29-1.19.49.08-3.32.13-5.04.21-8.49.55-.04.83-.05,1.38-.08.05.27.08.41.13.67.66,1.48.99,2.14,1.65,3.35.35-.1.52-.15.86-.24.21-.45.31-.67.52-1.09,0-.62.01-.92.02-1.53-.33-.33-.5-.51-.83-.88-.51.03-.77.05-1.28.08-.94-1.39-1.42-2.19-2.36-3.99.07-3.07.11-4.61.19-7.62.94-1.11,1.41-1.56,2.31-2.34,1.21.88,1.8,1.35,2.95,2.35.39.74.58,1.1.97,1.8,0-.29,0-.44,0-.74.41.37.61.56,1.02.94,0,2.09,0,2.98,0,4.72-.44-.23-.67-.35-1.12-.57-.05-.22-.08-.33-.13-.56-.5-1.06-.75-1.64-1.25-2.88-.41-.27-.62-.4-1.04-.66-.16.23-.23.35-.39.6,0,.49-.01.74-.02,1.22.32.56.48.83.81,1.35.55.23.82.35,1.35.6.85,1.5,1.27,2.16,2.12,3.25,0,1.88,0,2.76,0,4.88-.87,1.2-1.32,1.94-2.24,3.58Z"/>
      </g>
      <g>
        <path class="cls-2" d="M117.05,273.33c-.93,2.93-1.39,4.4-2.32,7.33-.74-.45-1.11-.67-1.85-1.15.22-.64.32-.96.54-1.6-1.03.22-1.56.32-2.61.48-1.71-1.17-2.56-1.8-4.23-3.12-.7-2.4-1.02-3.6-1.6-6,2.11-4.58,3.17-6.87,5.28-11.44,1.78-.45,2.65-.72,4.35-1.33,1.36,1.07,2.05,1.57,3.44,2.52.34.83.52,1.24.88,2.07.14-.4.2-.6.34-1,.57.37.85.54,1.42.89-.99,3.08-1.48,4.63-2.47,7.71-.66-.4-.98-.6-1.64-1.03.14-.4.2-.6.34-.99-.33-1.79-.48-2.68-.74-4.46-.37-.26-.55-.39-.91-.65-.72.68-1.09,1.01-1.83,1.67-1.27,3.21-1.9,4.81-3.17,8.02.03.93.04,1.4.09,2.33.45.33.68.49,1.14.81.19-.16.29-.25.48-.41.47-1.27.7-1.91,1.17-3.18-.47-.33-.7-.49-1.17-.83.51-1.33.76-2,1.27-3.33,2.25,1.63,3.4,2.38,5.72,3.73-.43,1.39-.64,2.08-1.06,3.47-.34-.2-.51-.3-.85-.5Z"/>
        <path class="cls-2" d="M125.84,286.06c-.63-.97-.94-1.46-1.54-2.45.47-2.13.7-3.2,1.16-5.33-.21-.46-.32-.7-.53-1.16-.42-.18-.64-.27-1.06-.47-.36,1.52-.54,2.28-.9,3.8.05.3.07.45.13.76.33.15.5.22.83.36-.31,1.36-.46,2.04-.77,3.4-2.82-1.21-4.21-1.9-6.96-3.46.4-1.32.59-1.98.99-3.29.29.16.43.24.72.4.3-.31.45-.46.75-.77,1.28-4.46,1.92-6.69,3.2-11.15-.05-.5-.07-.75-.11-1.24-.25-.14-.37-.21-.62-.35.4-1.32.59-1.98.99-3.29,3.17,1.8,4.79,2.56,8.06,3.78.65.97.98,1.45,1.66,2.4-.45,2.59-.67,3.89-1.12,6.48-.96.51-1.44.75-2.43,1.21.79,1.12,1.19,1.67,2.02,2.76-.28,1.65-.42,2.47-.7,4.12.18.51.28.77.46,1.28.26.08.4.12.66.2-.22,1.39-.33,2.09-.55,3.48-1.75-.52-2.61-.81-4.34-1.47ZM127.37,269.58c-.19-.45-.28-.68-.47-1.14-.39-.17-.58-.25-.97-.42-.46,1.94-.69,2.91-1.15,4.84.41.18.61.27,1.02.45.35-.21.52-.32.87-.54.28-1.28.42-1.91.7-3.19Z"/>
        <path class="cls-2" d="M141.22,289.99c-2.76-.3-4.14-.52-6.87-1.14-1.18-1.61-1.75-2.44-2.84-4.11.86-5.74,1.29-8.61,2.15-14.35,1.34-1.17,1.99-1.78,3.24-3.04,2.21.5,3.33.68,5.56.92,1.01,1.45,1.54,2.15,2.63,3.54-.16,5.86-.24,8.79-.4,14.64-1.34,1.45-2.04,2.16-3.47,3.53ZM140.35,273.83c-.22-.75-.32-1.13-.53-1.89-.36-.06-.55-.09-.91-.15-.37.74-.56,1.11-.94,1.84-.4,3.96-.59,5.94-.99,9.9.23.77.34,1.15.58,1.92.42.07.62.11,1.04.17.41-.74.61-1.11,1-1.86.3-3.98.45-5.96.75-9.94Z"/>
        <path class="cls-2" d="M161.81,270.35c-.06,6.82-.18,10.25-.61,17.1.05.43.08.65.13,1.08-1.64.38-2.46.54-4.11.81-.04-.44-.06-.66-.09-1.09-1.09-4.04-1.61-6.07-2.56-10.14-.35,4.25-.56,6.37-1.05,10.61.02.44.03.66.06,1.1-1.66.16-2.48.22-4.14.27,0-.44-.01-.66-.02-1.1-1.44-6.62-2.06-9.95-3.1-16.64-.26,0-.4-.01-.66-.02.03-1.42.04-2.14.07-3.56,2.4.1,3.61.07,6.01-.13.06,1.42.09,2.13.16,3.56-.36.03-.55.04-.91.07.01.35.02.52.03.87.57,2.82.87,4.22,1.5,7.02.35-3.24.51-4.85.78-8.09-.3.03-.45.05-.75.08-.07-1.42-.11-2.13-.18-3.55,2.18-.21,3.27-.38,5.43-.84.16,1.41.24,2.11.39,3.52-.33.07-.5.1-.83.17.82,3.07,1.25,4.6,2.15,7.64.14-2.92.19-4.38.27-7.29-.04-.34-.07-.51-.11-.85-.33.08-.5.12-.83.19-.17-1.41-.25-2.11-.42-3.52,1.39-.31,2.09-.5,3.47-.91.22,1.39.33,2.09.55,3.48-.26.08-.39.12-.65.19Z"/>
        <path class="cls-2" d="M173.1,271.88c-.22-.84-.34-1.26-.56-2.09-.88-1.06-1.31-1.6-2.15-2.69-.13.06-.19.09-.32.15,1.23,4.96,1.84,7.43,3.07,12.39.28.33.43.5.71.83.48-.23.72-.35,1.19-.58.36,1.34.53,2.01.89,3.35-3.23,1.63-4.88,2.32-8.19,3.46-.25-1.38-.38-2.07-.63-3.46.48-.17.72-.25,1.2-.43.11-.49.16-.74.26-1.24-1.01-5.05-1.51-7.57-2.52-12.62-.13.05-.2.07-.33.12-.25,1.56-.39,2.34-.68,3.89.16.87.23,1.3.39,2.16-.62.21-.93.31-1.56.51-.6-3.64-.9-5.46-1.49-9.1,3.96-1.23,5.92-2.05,9.75-4.12.99,3.47,1.49,5.21,2.48,8.68-.6.33-.9.48-1.51.79Z"/>
        <path class="cls-2" d="M185.42,277.49c-.47-1.27-.71-1.9-1.19-3.17.25-.17.37-.26.61-.44.01-.31.02-.47.03-.78-.64-1.65-.95-2.47-1.59-4.12-.86.63-1.3.94-2.17,1.53.6,1.67.9,2.51,1.49,4.18.19.17.29.25.48.42.25-.17.37-.25.62-.43.47,1.27.7,1.91,1.17,3.18-2.6,1.82-3.93,2.64-6.61,4.12-.38-1.32-.58-1.98-.96-3.31.29-.16.43-.24.72-.4.06-.51.09-.77.15-1.28-1.35-4.42-2.02-6.64-3.37-11.06-.29-.31-.43-.47-.71-.79-.25.14-.37.21-.62.35-.38-1.32-.58-1.98-.96-3.31,2.18-1.2,3.26-1.87,5.37-3.35.47,1.27.7,1.91,1.17,3.18-.21.15-.32.22-.54.37,0,.3,0,.45-.02.75.51,1.43.77,2.15,1.28,3.59.84-.57,1.26-.86,2.08-1.47-.55-1.41-.82-2.12-1.36-3.53-.18-.17-.27-.25-.46-.42-.21.15-.32.23-.53.38-.47-1.27-.71-1.9-1.19-3.17,2.11-1.5,3.14-2.31,5.17-4.09.55,1.2.83,1.81,1.39,3.01-.23.2-.35.3-.58.5.02.5.03.75.04,1.26,1.82,4.09,2.73,6.14,4.55,10.23.34.23.51.35.85.57.27-.23.4-.35.67-.58.55,1.2.83,1.81,1.39,3.01-2.5,2.18-3.77,3.19-6.37,5.03Z"/>
      </g>
    </g>
    <g>
      <g>
        <path class="cls-2" d="M215.53,251.25h-9.42v-2.9h.72l.46-.89v-9.76l-.46-.89h-.72v-2.9h9.42l2.37,1.44v4.88l-2.18,1.46,2.62,1.44v6.7l-2.81,1.44ZM213.55,237.5l-.73-.71h-1.17v3.96h1.17l.73-.71v-2.55ZM213.72,244.74l-.91-.89h-1.17v4.5h1.17l.91-.89v-2.71Z"/>
        <path class="cls-2" d="M231.12,236.8l-.45.89v10.84l-2.54,2.9h-5.07l-2.72-2.71v-11.03l-.46-.89h-.82v-2.9h7.44v2.9h-.82l-.45.89v8.49l1.09,1.46h.81l1.09-1.46v-8.49l-.46-.89h-.72v-2.9h4.91v2.9h-.83Z"/>
        <path class="cls-2" d="M232.39,251.25v-2.9h.72l.46-.89v-9.76l-.46-.89h-.72v-2.9h6.89v2.9h-.73l-.45.89v9.76l.45.89h.73v2.9h-6.89Z"/>
        <path class="cls-2" d="M239.82,251.25v-2.9h.72l.46-.89v-9.76l-.46-.89h-.72v-2.9h7.07v2.9h-.91l-.45.89v10.65h.99l2.37-3.25v-1.79h1.71v7.94h-10.78Z"/>
        <path class="cls-2" d="M260.75,251.25h-9.69v-2.9h.72l.46-.89v-9.76l-.46-.89h-.72v-2.9h9.69l3.26,2.71v11.39l-3.26,3.25ZM259.12,238.78l-.9-1.82h-1.36v11.22h1.26l.99-2.01v-7.4Z"/>
        <path class="cls-2" d="M265.02,251.25v-2.9h.72l.46-.89v-9.76l-.46-.89h-.72v-2.9h6.89v2.9h-.73l-.45.89v9.76l.45.89h.73v2.9h-6.89Z"/>
        <path class="cls-2" d="M284.42,236.8l-.45.89v13.56h-3.9v-.89l-4.35-8.68v5.23l.72,1.44h1.01v2.9h-4.99v-2.9h.54l.64-1.25v-9.22l-.54-1.08h-.64v-2.9h5.89v1.08l3.63,7.24v-4.34l-.54-1.08h-.99v-2.9h4.62v2.9h-.64Z"/>
        <path class="cls-2" d="M297.29,244.74v6.51h-1.82v-1.44l-1.99,1.63h-4.27l-3.26-3.25v-11.03l3.45-3.44h4.3l1.59,1.08v-.89h1.73v6.86h-1.82v-.89l-2.17-2.9h-1.09l-1.09,2.17v7.43l.82,1.63h1.18l.27-.54v-2.9h-1.26v-3.06h6.33v3.06h-.9Z"/>
        <rect class="cls-1" x="206.11" y="233.71" width="92.07" height="17.73"/>
      </g>
      <g>
        <path class="cls-2" d="M214.88,255.67l.94.79v2.84l-.94.79h-1.5v-4.41h1.5ZM214.88,263.53l1.17,1v3.02l-1.17,1h-1.5v-5.02h1.5ZM221.98,262.71l-3.37-1.6,2.79-1.63v-5.44l-3.04-1.6h-12.1v3.24h.93l.59,1v10.89l-.59,1h-.93v3.24h12.1l3.61-1.6v-7.47Z"/>
        <path class="cls-2" d="M231.18,255.85h1.27l.93,1.63v9.07l-1.05,1.81h-1.27l-.93-1.63v-9.07l1.05-1.81ZM239.78,255.24l-3.96-3.02h-8.13l-3.96,3.45v13.31l3.96,3.02h8.13l3.96-3.45v-13.31Z"/>
        <path class="cls-2" d="M251.53,257.88l-1.15-2.03h-1.75v12.52h1.62l1.27-2.24v-8.26ZM253.63,271.79h-12.44v-3.24h.93l.59-1v-10.89l-.59-1h-.93v-3.24h12.44l4.19,3.02v12.7l-4.19,3.63Z"/>
        <polygon class="cls-2" points="259.11 271.79 259.11 268.55 260.03 268.55 260.62 267.55 260.62 256.67 260.03 255.67 259.11 255.67 259.11 252.43 267.96 252.43 267.96 255.67 267.01 255.67 266.44 256.67 266.44 267.55 267.01 268.55 267.96 268.55 267.96 271.79 259.11 271.79"/>
        <polygon class="cls-2" points="268.65 271.79 268.65 268.55 269.58 268.55 270.17 267.55 270.17 256.67 269.58 255.67 268.65 255.67 268.65 252.43 282.97 252.43 282.97 259.9 280.87 259.9 280.87 258.27 278.55 255.67 275.86 255.67 275.86 259.9 276.56 259.9 277.5 257.27 279.25 257.27 279.25 266.34 277.5 266.34 276.56 263.71 275.86 263.71 275.86 268.55 277.96 268.55 280.99 264.92 280.99 263.11 283.09 263.11 283.09 271.79 268.65 271.79"/>
        <polygon class="cls-2" points="298.1 261.72 294.37 258.48 292.04 258.48 290.65 257.48 290.65 256.27 291.29 255.46 293.09 255.46 295.31 257.88 295.54 258.48 297.51 258.48 297.51 252.43 295.66 252.43 295.66 253.25 293.91 252.22 288.78 252.22 285.06 255.46 285.06 261.72 289.02 265.13 291.12 265.13 292.52 266.13 292.52 267.76 291.7 268.76 290.3 268.76 287.51 265.34 287.28 264.74 285.06 264.74 285.06 271.79 286.93 271.79 286.93 270.79 288.9 272 294.37 272 298.1 268.76 298.1 261.72"/>
      </g>
    </g>
    <g>
      <path class="cls-2" d="M322.45,272.21l-1.02.75.65,1.77,1.01-.75,1.13,3.2-1.01.75,1.37,3.84-1.27.94-1.37-3.84-1.01.75,1.37,3.84-1.27.94-1.37-3.84-1.01.75-1.13-3.2,1.01-.75-.64-1.77-1.02.75-1.09-3.01,1.02-.75-1.25-3.53,1.27-.94,1.24,3.54,1.02-.75-1.25-3.53,1.27-.94,1.24,3.54,1.02-.75,1.09,3.01ZM319.14,274.65l.64,1.77,1.01-.75-.64-1.77-1.02.75Z"/>
      <path class="cls-2" d="M335.47,273.69l-6.59,4.88-1.55-2.09.5-.37-.16-.89-5.22-7.05-.8-.41-.5.37-1.55-2.09,6.59-4.88,2.42-.19,2.61,3.52-.74,2.18,2.6-.32,3.58,4.84-1.2,2.5ZM326.73,264.79l-.89-.13-.82.61,2.12,2.86.82-.61.14-.89-1.36-1.84ZM330.73,269.93l-1.12-.17-.82.61,2.41,3.25.82-.61.16-1.12-1.45-1.96Z"/>
      <path class="cls-2" d="M338.01,271.81l-1.55-2.09.5-.37-.16-.89-5.22-7.05-.8-.41-.5.37-1.55-2.09,7.8-5.78,3.58,4.84-1.14.84-.78-1.06-2.51-.75-1.46,1.09,2.03,2.74.38-.28-.75-2.08.95-.7,4.35,5.87-.95.7-1.78-1.32-.38.28,2.32,3.13,1.14-.85-.09-3.57-.87-1.17,1.14-.85,4.16,5.62-7.87,5.82Z"/>
      <path class="cls-2" d="M346.57,265.47l-1.55-2.09.5-.37-.16-.89-5.22-7.05-.8-.41-.5.37-1.55-2.09,7.8-5.78,3.58,4.84-1.14.84-.78-1.06-2.51-.75-1.46,1.08,2.03,2.74.38-.28-.75-2.08.95-.7,4.35,5.87-.95.7-1.78-1.32-.38.28,2.32,3.13,1.14-.84-.09-3.58-.87-1.17,1.14-.84,4.16,5.62-7.86,5.82Z"/>
      <path class="cls-2" d="M356.05,246.71l-.77-1.04-2.68-.84-1.21.9,2.22,3,.31-.23-.69-2.13.95-.7,4.35,5.87-.95.7-1.82-1.26-.31.23,1.74,2.35.64.32.82-.61,1.55,2.09-5.07,3.75-1.55-2.09.5-.37-.16-.89-5.22-7.05-.8-.41-.5.37-1.55-2.09,7.67-5.68,3.67,4.95-1.14.84Z"/>
      <path class="cls-2" d="M368.98,249.08l-3.23,2.4-4.02-.66-5.8-7.83.6-4.51,2.73-2.02,1.72-.06-.48-.65,1.2-.89,4.25,5.74-1.45,1.08-.58-.78-3.04-1.57-.69.51.36,1.94,3.38,4.56,2.08.7.64-.47-.5-2.66-.68-.92,1.52-1.13,2.51,3.39-.51,3.83Z"/>
      <path class="cls-2" d="M375.54,244.01l-1.55-2.09.72-.54-.12-.7-.86-.79-2.51,1.86.49,1.06.64.32.69-.51,1.55,2.09-3.23,2.4-1.55-2.09.5-.37-4.8-11.39-.58-.78,3.68-2.73.58.78,9.24,8.1.5-.37,1.55,2.09-4.95,3.66ZM368.06,234.79l2,4.4,1.57-1.16-3.57-3.24Z"/>
      <path class="cls-2" d="M385.48,236.65l-1.55-2.09.57-.42-3.4-2.34.04,1.39,1.35,1.82.48.25.45-.33,1.55,2.09-4.57,3.38-1.55-2.09.5-.37-.16-.89-5.22-7.05-.8-.41-.5.37-1.55-2.09,4.69-3.47,1.55,2.09-.57.42.1.53,2.12,2.86-.08-4.37-.29-.39-.64.47-1.55-2.09,3.8-2.82,1.55,2.09-.88.66-.03,2.63,7.21,4.97.45-.33,1.55,2.09-4.63,3.43Z"/>
      <path class="cls-2" d="M390.05,233.27l-1.55-2.09.5-.37-.16-.89-5.22-7.05-.8-.41-.5.37-1.55-2.09,7.8-5.78,3.58,4.84-1.14.85-.78-1.06-2.51-.75-1.46,1.08,2.03,2.74.38-.28-.75-2.09.95-.7,4.35,5.87-.95.7-1.77-1.32-.38.28,2.32,3.13,1.14-.85-.09-3.57-.87-1.17,1.14-.85,4.16,5.62-7.87,5.83Z"/>
    </g>
    <g>
      <path d="M183.22,341.21v24.78c0,.68-.62,1.23-1.39,1.23s-1.39-.55-1.39-1.23v-12.51c-5.03-3.12-16.65-10.28-32.83-10.34h-.17c-16.01,0-27.56,7.14-32.56,10.25v13.46c0,.68-.62,1.23-1.39,1.23s-1.39-.55-1.39-1.23v-24.78c0-.67.62-1.23,1.39-1.23s1.39.55,1.39,1.23v8.67c2.02-1.25,6.28-3.82,11.87-5.95,6.77-2.59,13.73-3.9,20.69-3.9.07,0,.13,0,.19,0,14.7.04,25.73,5.64,32.82,9.94v-9.62c0-.67.62-1.23,1.39-1.23s1.39.55,1.39,1.23Z"/>
      <path class="cls-2" d="M111.74,344.7v19.75c0,.68-.62,1.23-1.39,1.23s-1.39-.55-1.39-1.23v-19.75c0-.67.62-1.23,1.39-1.23s1.39.55,1.39,1.23Z"/>
      <path class="cls-2" d="M108.61,347.32v14.71c0,.67-.62,1.23-1.39,1.23s-1.39-.55-1.39-1.23v-14.71c0-.68.62-1.23,1.39-1.23s1.39.55,1.39,1.23Z"/>
      <path class="cls-2" d="M105.48,349.94v9.68c0,.67-.62,1.23-1.39,1.23s-1.39-.55-1.39-1.23v-9.68c0-.67.62-1.23,1.39-1.23s1.39.55,1.39,1.23Z"/>
      <path class="cls-2" d="M102.36,352.57v4.65c0,.68-.62,1.23-1.39,1.23s-1.39-.55-1.39-1.23v-4.65c0-.68.62-1.23,1.39-1.23s1.39.55,1.39,1.23Z"/>
      <path class="cls-2" d="M186.35,344.7v19.75c0,.68-.63,1.23-1.39,1.23s-1.39-.55-1.39-1.23v-19.75c0-.67.62-1.23,1.39-1.23s1.39.55,1.39,1.23Z"/>
      <path class="cls-2" d="M192.6,349.94v9.68c0,.67-.62,1.23-1.39,1.23s-1.39-.55-1.39-1.23v-9.68c0-.67.62-1.23,1.39-1.23s1.39.55,1.39,1.23Z"/>
      <path class="cls-2" d="M189.47,347.32v14.71c0,.67-.62,1.23-1.39,1.23s-1.39-.55-1.39-1.23v-14.71c0-.68.62-1.23,1.39-1.23s1.39.55,1.39,1.23Z"/>
      <path class="cls-2" d="M195.73,352.57v4.65c0,.68-.62,1.23-1.39,1.23s-1.39-.55-1.39-1.23v-4.65c0-.68.62-1.23,1.39-1.23s1.39.55,1.39,1.23Z"/>
      <g>
        <path class="cls-2" d="M121.27,337.65l-.47-1.06-1.56-1.3-.21.09,2.78,6.19.49.41.67-.3.76,1.68-4.39,1.97-.76-1.68.66-.3.03-.64-2.78-6.19-.21.09-.07,2.04.47,1.06-.92.41-1.98-4.41,6.43-2.89,1.98,4.41-.92.41Z"/>
        <path class="cls-2" d="M129.9,341.27l-.52-1.77.38-.11.06-.38-.68-2.32-1.4.41.68,2.32.26.29.38-.11.52,1.77-3.86,1.13-.52-1.77.43-.12.11-.63-1.75-5.96-.43-.47-.43.12-.52-1.77,3.86-1.13.52,1.77-.38.11-.06.38.58,1.99,1.4-.41-.58-1.99-.26-.28-.38.11-.52-1.77,3.86-1.13.52,1.77-.43.12-.11.63,1.75,5.96.43.47.43-.13.52,1.77-3.86,1.13Z"/>
        <path class="cls-2" d="M134.81,339.96l-.26-1.83.44-.06.2-.6-.89-6.15-.36-.52-.44.06-.26-1.83,6.81-.98.61,4.22-1,.14-.13-.92-1.32-1.31-1.28.18.35,2.39.33-.05.23-1.55.83-.12.74,5.12-.83.12-.66-1.42-.33.05.4,2.73,1-.14,1.15-2.26-.15-1.02,1-.14.71,4.9-6.87.99Z"/>
        <path class="cls-2" d="M152.22,339.08l-3.91-.18-1.82-1.81.36-7.59,2-1.88,3.91.18,1.82,1.81-.36,7.59-2,1.88ZM151.44,330.74l-.4-.95-.61-.03-.55,1.01-.25,5.17.4.95.61.03.55-1.01.25-5.17Z"/>
        <path class="cls-2" d="M164.56,331.6l-.38.51-1.66,8.47-2.36-.46.11-.56-1.57-5.94-.64,3.27.26.98.61.12-.36,1.81-3.02-.59.36-1.81.33.06.54-.7,1.13-5.76-.2-.74-.39-.08.35-1.81,3.56.7-.13.68,1.31,4.95.53-2.71-.2-.74-.6-.12.35-1.81,2.8.55-.35,1.81-.39-.08Z"/>
        <path class="cls-2" d="M164.2,341.02l.59-1.75.42.14.45-.45,1.97-5.89-.09-.63-.42-.14.59-1.75,4.14,1.39-.59,1.75-.53-.18-.44.45-2.15,6.43.58.19,2.04-1.5.36-1.08,1,.34-1.61,4.8-6.31-2.12Z"/>
        <path class="cls-2" d="M181.21,337.96l-4.17,3.39-.82,1.77v.63s.72.33.72.33l-.78,1.67-4.41-2.06.78-1.67.76.35.5-.4.78-1.67-.1-5.49-.3-.14.78-1.67,4.26,1.99-.78,1.67-.71-.33-.15.31.04,2.3,1.79-1.45.15-.31-.66-.31.78-1.67,2.64,1.23-.78,1.67-.3-.14Z"/>
      </g>
      <g>
        <path class="cls-2" d="M134.7,351.44c-1.16,9.91-1.74,14.71-2.89,23.77v1.54c-1.51-.39-2.27-.61-3.76-1.11v-1.43c-.68-5.62-1.01-8.34-1.69-13.51-.64,5.21-.95,7.71-1.58,12.44v1.3c-1.47-.58-2.2-.9-3.64-1.58v-1.14c-1.17-7.4-1.75-10.71-2.89-16.29-.27.1-.4.15-.67.24v-3.08c2.51-1.4,3.79-2.02,6.41-3.09v4.12c-.38.1-.57.16-.95.27v.97c.48,3.06.73,4.67,1.21,8.01.49-3.71.73-5.64,1.22-9.64-.32.08-.47.12-.79.2v-4.21c2.38-.95,3.59-1.36,6.04-2.04v4.89c-.36.07-.54.1-.9.17.54,4.21.81,6.37,1.35,10.81.47-3.94.7-5.95,1.18-10.05v-1.23c-.36.06-.54.09-.91.16,0-1.98,0-2.97,0-4.96,1.58-.42,2.38-.6,3.98-.92,0,2.11,0,3.16,0,5.26-.29.04-.43.06-.72.1Z"/>
        <path class="cls-2" d="M143.59,378.58c0-2.24,0-3.36,0-5.6.26,0,.39.01.65.02.11-.42.17-.62.28-1.04v-7.35c-.96,0-1.45-.01-2.41-.02,0,2.91,0,4.37,0,7.29.11.42.17.63.28,1.06.26.01.39.02.65.03v5.59c-2.66-.17-3.98-.33-6.61-.79,0-2.13,0-3.2,0-5.33.29.03.44.05.73.08.19-.64.28-.97.47-1.61,0-7.26,0-10.89,0-18.14-.19-.65-.28-.97-.47-1.61-.29.03-.44.05-.73.08,0-2.13,0-3.2,0-5.33,2.63-.46,3.96-.62,6.61-.79,0,2.24,0,3.35,0,5.59-.26.01-.39.02-.65.03-.11.42-.17.63-.28,1.06,0,2.5,0,3.75,0,6.25.96-.02,1.44-.02,2.41-.03v-6.3c-.11-.42-.17-.63-.28-1.04-.26,0-.39.01-.65.02,0-2.24,0-3.36,0-5.6,2.66-.14,3.99-.14,6.65,0,0,2.24,0,3.36,0,5.6-.29-.01-.44-.02-.73-.02-.19.69-.28,1.03-.47,1.72,0,7.56,0,11.34,0,18.91.19.69.28,1.03.47,1.72.29,0,.44-.01.73-.02,0,2.24,0,3.36,0,5.6-2.66.15-3.99.15-6.65,0Z"/>
        <path class="cls-2" d="M151.31,378.5c0-2.23,0-3.35,0-5.58.29-.01.44-.02.73-.04.19-.7.28-1.04.47-1.74,0-7.46,0-11.19,0-18.65-.19-.69-.28-1.04-.47-1.74-.29-.02-.44-.02-.73-.04,0-2.23,0-3.35,0-5.58,4.54.34,6.8.72,11.23,1.92,0,4.56,0,6.83,0,11.39-.65-.04-.97-.06-1.62-.09v-2.56c-.72-1.7-1.08-2.57-1.81-4.35-.84-.12-1.26-.17-2.11-.27v6.99c.22,0,.33.01.55.02.3-1.71.44-2.56.74-4.25.55.05.82.08,1.36.14v14.5c-.54.05-.82.08-1.36.12-.3-1.69-.44-2.54-.74-4.26-.22,0-.33,0-.55.02,0,3.2,0,4.79,0,7.99.66-.08.99-.12,1.64-.2.95-2.48,1.42-3.69,2.37-6.03v-2.84c.65-.02.98-.02,1.62-.04,0,5.28,0,7.93,0,13.21-4.46,1.22-6.75,1.61-11.32,1.95Z"/>
        <path class="cls-2" d="M175.62,355.5c-1.41,2.81-2.12,4.59-3.57,8.69v3.99c.17.42.26.63.43,1.03.48-.15.72-.23,1.19-.39v3.52c-2.96,1.48-4.48,2.11-7.57,3.16v-4.57c.53-.12.8-.18,1.33-.31.18-.59.27-.88.45-1.46,0-1.74,0-2.62,0-4.36-1.51-4.53-2.28-7.08-3.82-12.51-.21-.04-.32-.06-.54-.11,0-1.94,0-2.9,0-4.84,3.01.87,4.5,1.41,7.41,2.68,0,1.58,0,2.37,0,3.94-.48-.14-.73-.21-1.21-.34v.77c.63,2,.94,2.96,1.56,4.77.62-1.68.93-2.47,1.55-3.93v-.68c-.45-.14-.67-.21-1.12-.35v-3.83c1.79.82,2.68,1.26,4.42,2.23v3.08c-.2-.07-.3-.11-.5-.18Z"/>
      </g>
    </g>
    <g>
      <path class="cls-2" d="M317.55,364.12h-3.67l-1.32-1.52v1.25h-1.25v-8.84h1.49l.15.76,1.87,4.29h.94l.55-1.25v-2.05l-.94-1.25h-1.41l-2.66-4.29v-7.85l2.49-4.06h3.44l1.17,1.29v-1.02h1.24v7.59h-1.32l-.15-.76-1.49-3.04h-1.21l-.43,1.03v1.52l.94,1.25h1.56l2.51,4.06v8.84l-2.51,4.06Z"/>
      <path class="cls-2" d="M326.92,363.85v-4.06h.55l.23-.76v-5.31h-2.04v5.31l.23.76h.55v4.06h-5.62v-4.06h.62l.4-1.25v-13.66l-.4-1.25h-.62v-4.06h5.62v4.06h-.55l-.23.76v4.55h2.04v-4.55l-.23-.76h-.55v-4.06h5.62v4.06h-.62l-.4,1.25v13.66l.4,1.25h.62v4.06h-5.62Z"/>
      <path class="cls-2" d="M340.94,363.85l-1.56-2.01v-6.34l-.63-1.02h-.94v4.55l.23.76h.7v4.06h-5.77v-4.06h.62l.4-1.25v-13.66l-.4-1.25h-.62v-4.06h8.2l1.96,2.01v7.59l-1.87,2.28,2.11,2.28v4.82l.54,1.25h.55v4.06h-3.51ZM339.39,345.15l-.63-1.02h-.94v5.81h.94l.63-.99v-3.79Z"/>
      <path class="cls-2" d="M344.38,363.85v-4.06h.62l.4-1.25v-13.66l-.4-1.25h-.62v-4.06h9.61v9.37h-1.41v-2.05l-1.56-3.26h-1.8v5.31h.47l.63-3.3h1.17v11.38h-1.17l-.63-3.3h-.47v6.07h1.41l2.04-4.55v-2.28h1.41v10.89h-9.69Z"/>
      <path class="cls-2" d="M363.27,363.85h-8.35v-4.06h.62l.4-1.25v-13.66l-.4-1.25h-.62v-4.06h8.35l2.81,3.79v15.94l-2.81,4.55ZM361.87,346.4l-.77-2.54h-1.17v15.71h1.09l.86-2.81v-10.36Z"/>
      <path class="cls-2" d="M375.3,363.85h-8.35v-4.06h.62l.4-1.25v-13.66l-.4-1.25h-.62v-4.06h8.35l2.81,3.79v15.94l-2.81,4.55ZM373.9,346.4l-.77-2.54h-1.17v15.71h1.09l.86-2.81v-10.36Z"/>
      <path class="cls-2" d="M378.99,363.85v-4.06h.62l.4-1.25v-13.66l-.4-1.25h-.62v-4.06h9.61v9.37h-1.41v-2.05l-1.56-3.26h-1.8v5.31h.47l.63-3.3h1.17v11.38h-1.17l-.63-3.3h-.47v6.07h1.41l2.04-4.55v-2.28h1.41v10.89h-9.69Z"/>
      <path class="cls-2" d="M397.88,363.85h-8.35v-4.06h.62l.4-1.25v-13.66l-.4-1.25h-.62v-4.06h8.35l2.81,3.79v15.94l-2.81,4.55ZM396.48,346.4l-.77-2.54h-1.17v15.71h1.09l.86-2.81v-10.36Z"/>
    </g>
    <g>
      <path class="cls-2" d="M220.25,329.5l-11.78-11.78,2.7-2.7.9.9,1.41-.26,9.09-9.09.26-1.41-.9-.9,2.7-2.7,11.78,11.78,1.62,4.3-4.55,4.55-4.08-1.35,1.94,4.62-6.24,6.24-4.86-2.18ZM230.58,314.2l-.26-1.58-1.46-1.46-3.69,3.69,1.46,1.46,1.58.26,2.37-2.37ZM224.05,321.17l-.31-1.97-1.46-1.46-4.19,4.19,1.46,1.46,1.97.3,2.53-2.53Z"/>
      <path class="cls-2" d="M253.22,335.53l-1.39.27-10.11,10.11-5.88-.48-6.34-6.34-.87-5.93,10.28-10.28.26-1.41-1.02-1.02,2.7-2.7,9.3,9.3-2.7,2.7-1.02-1.02-1.4.27-7.91,7.91v2.72s1.02,1.02,1.02,1.02h2.72s7.91-7.91,7.91-7.91l.26-1.41-.9-.9,2.7-2.7,6.14,6.14-2.7,2.7-1.04-1.04Z"/>
      <path class="cls-2" d="M241.34,350.58l2.7-2.7.9.9,1.41-.26,9.09-9.09.26-1.41-.9-.9,2.7-2.7,8.84,8.84-2.7,2.7-1.14-1.14-1.4.27-9.93,9.93,1.24,1.24,5.99-.07,1.67-1.67,2.14,2.14-7.4,7.4-13.48-13.48Z"/>
      <path class="cls-2" d="M264.46,373.7l2.7-2.7,1.02,1.02,2.12-5.96-2.33.05-2.35,2.35-.17.84.8.8-2.7,2.7-8.16-8.16,2.7-2.7.9.9,1.41-.26,9.09-9.09.26-1.41-.9-.9,2.7-2.7,8.38,8.38-2.7,2.7-1.02-1.02-.84.17-3.69,3.69,7.33-.05.51-.51-1.14-1.14,2.7-2.7,6.8,6.8-2.7,2.7-1.58-1.58-4.45-.1-4.51,12.67.8.8-2.7,2.7-8.28-8.28Z"/>
    </g>
  </g>
</svg>